<?xml version="1.0" encoding="UTF-8" standalone="no"?><!DOCTYPE svg PUBLIC "-//W3C//DTD SVG 1.1//EN" "http://www.w3.org/Graphics/SVG/1.1/DTD/svg11.dtd">
<svg width="100%" height="100%" viewBox="0 0 128 512" version="1.1" xmlns="http://www.w3.org/2000/svg"
     xml:space="preserve"
     style="fill-rule:evenodd;clip-rule:evenodd;stroke-linejoin:round;stroke-miterlimit:2;"><path d="M64,360c-30.721,0 -56,25.279 -56,56c0,30.721 25.279,56 56,56c30.721,0 56,-25.279 56,-56c0,-30.721 -25.279,-56 -56,-56Zm0,-160c-30.721,0 -56,25.279 -56,56c0,30.721 25.279,56 56,56c30.721,0 56,-25.279 56,-56c0,-30.721 -25.279,-56 -56,-56Zm56,-104c0,-30.721 -25.279,-56 -56,-56c-30.721,0 -56,25.279 -56,56c0,30.721 25.279,56 56,56c30.721,0 56,-25.279 56,-56Z" style="fill:#6e6e6e;fill-rule:nonzero;"/></svg>