<?xml version="1.0" encoding="UTF-8" standalone="no"?>
<!DOCTYPE svg PUBLIC "-//W3C//DTD SVG 1.1//EN" "http://www.w3.org/Graphics/SVG/1.1/DTD/svg11.dtd">
<svg width="100%" height="100%" viewBox="0 0 576 512" version="1.1" xmlns="http://www.w3.org/2000/svg"
     xml:space="preserve"
     style="fill-rule:evenodd;clip-rule:evenodd;stroke-linejoin:round;stroke-miterlimit:2;">
    <path d="M0,64C0,28.65 28.65,0 64,0L224,0L224,128C224,145.7 238.3,160 256,160L384,160L384,198.6C310.1,219.5 256,287.4 256,368C256,427.1 285.1,479.3 329.7,511.3C326.6,511.7 323.3,512 320,512L64,512C28.65,512 0,483.3 0,448L0,64ZM256,128L256,0L384,128L256,128ZM288,368C288,288.5 352.5,224 432,224C511.5,224 576,288.5 576,368C576,447.5 511.5,512 432,512C352.5,512 288,447.5 288,368ZM491.3,331.3C497.6,325.1 497.6,314.9 491.3,308.7C485.1,302.4 474.9,302.4 468.7,308.7L432,345.4L395.3,308.7C389.1,302.4 378.9,302.4 372.7,308.7C366.4,314.9 366.4,325.1 372.7,331.3L409.4,368L372.7,404.7C366.4,410.9 366.4,421.1 372.7,427.3C378.9,433.6 389.1,433.6 395.3,427.3L432,390.6L468.7,427.3C474.9,433.6 485.1,433.6 491.3,427.3C497.6,421.1 497.6,410.9 491.3,404.7L454.6,368L491.3,331.3Z" style="fill-rule:nonzero;"/>
    <clipPath id="_clip1">
        <path d="M0,64C0,28.65 28.65,0 64,0L224,0L224,128C224,145.7 238.3,160 256,160L384,160L384,198.6C310.1,219.5 256,287.4 256,368C256,427.1 285.1,479.3 329.7,511.3C326.6,511.7 323.3,512 320,512L64,512C28.65,512 0,483.3 0,448L0,64ZM256,128L256,0L384,128L256,128ZM288,368C288,288.5 352.5,224 432,224C511.5,224 576,288.5 576,368C576,447.5 511.5,512 432,512C352.5,512 288,447.5 288,368ZM491.3,331.3C497.6,325.1 497.6,314.9 491.3,308.7C485.1,302.4 474.9,302.4 468.7,308.7L432,345.4L395.3,308.7C389.1,302.4 378.9,302.4 372.7,308.7C366.4,314.9 366.4,325.1 372.7,331.3L409.4,368L372.7,404.7C366.4,410.9 366.4,421.1 372.7,427.3C378.9,433.6 389.1,433.6 395.3,427.3L432,390.6L468.7,427.3C474.9,433.6 485.1,433.6 491.3,427.3C497.6,421.1 497.6,410.9 491.3,404.7L454.6,368L491.3,331.3Z" clip-rule="nonzero"/>
    </clipPath>
    <g clip-path="url(#_clip1)">
        <path d="M256,128L256,0L384,128L256,128Z" style="fill:rgb(110,110,110);"/>
        <path d="M0,64C0,28.65 28.65,0 64,0L224,0L224,128C224,145.7 238.3,160 256,160L384,160L384,198.6C310.1,219.5 256,287.4 256,368C256,427.1 285.1,479.3 329.7,511.3C326.6,511.7 323.3,512 320,512L64,512C28.65,512 0,483.3 0,448L0,64Z" style="fill:rgb(110,110,110);"/>
        <path d="M288,368C288,288.5 352.5,224 432,224C511.5,224 576,288.5 576,368C576,447.5 511.5,512 432,512C352.5,512 288,447.5 288,368ZM491.3,331.3C497.6,325.1 497.6,314.9 491.3,308.7C485.1,302.4 474.9,302.4 468.7,308.7L432,345.4L395.3,308.7C389.1,302.4 378.9,302.4 372.7,308.7C366.4,314.9 366.4,325.1 372.7,331.3L409.4,368L372.7,404.7C366.4,410.9 366.4,421.1 372.7,427.3C378.9,433.6 389.1,433.6 395.3,427.3L432,390.6L468.7,427.3C474.9,433.6 485.1,433.6 491.3,427.3C497.6,421.1 497.6,410.9 491.3,404.7L454.6,368L491.3,331.3Z" style="fill:rgb(110,110,110);"/>
    </g>
</svg>
