<svg
        xmlns="http://www.w3.org/2000/svg"
        viewBox="0 0 512 512"
>
    <!--!Font Awesome Free 6.7.2 by @fontawesome - https://fontawesome.com License - https://fontawesome.com/license/free Copyright 2025 Fonticons, Inc.-->

    <path
            d="M184.6 261.9c3.2 14-12.1 24.6-24.1 17.2l-40.7-25.5-50.9 81.4C55.6 356.3 71 384 96 384H148c6.6 0 12 5.4 12 12v40c0 6.6-5.4 12-12 12H96.1c-75.3 0-121.3-83-81.4-146.9l50.8-81.4-40.7-25.4c-12.1-7.5-9-26 4.9-29.2l110.2-25.5c8.6-2 17.2 3.4 19.2 12l25.5 110.2zm98.6-182.9l41.3 66.1-40.7 25.5c-12.1 7.5-9 26 4.9 29.2l110.2 25.5c8.7 2 17.2-3.4 19.2-12l25.5-110.2c3.2-13.8-12-24.7-24.1-17.2l-40.7 25.4-41.3-66.1c-37.5-60-125.2-60.2-162.8 0l-18 28.8c-3.5 5.6-1.8 13 3.8 16.5l33.9 21.2c5.6 3.5 13 1.8 16.5-3.8l18-28.7c12.7-20.3 42-19.7 54.3 0zM497.3 301.1l-27.5-44.1c-3.5-5.6-10.9-7.3-16.5-3.8l-33.9 21.2c-5.6 3.5-7.3 10.9-3.8 16.5l27.6 44.1c13.3 21.2-2.1 49-27.1 49H320V336c0-14.2-17.2-21.4-27.3-11.3l-80 80c-6.2 6.2-6.2 16.4 0 22.6l80 80C302.7 517.3 320 510.3 320 496V448h95.9c75.3 0 121.3-83 81.4-146.9z"
            style="fill:#6e6e6e;fill-opacity:1" />
</svg>