<?xml version="1.0" encoding="UTF-8" standalone="no"?><!DOCTYPE svg PUBLIC "-//W3C//DTD SVG 1.1//EN" "http://www.w3.org/Graphics/SVG/1.1/DTD/svg11.dtd">
<svg width="100%" height="100%" viewBox="0 0 512 512" version="1.1" xmlns="http://www.w3.org/2000/svg"
     xml:space="preserve"
     style="fill-rule:evenodd;clip-rule:evenodd;stroke-linejoin:round;stroke-miterlimit:2;"><path d="M174.7,45.1c17.5,-28.1 48.3,-45.1 81.3,-45.1c33,0 63.8,17 81.3,45.1l38.6,61.7l27,-15.6c8.4,-4.9 18.9,-4.2 26.6,1.7c7.7,5.9 11.1,15.9 8.6,25.3l-23.4,87.4c-3.4,12.8 -16.6,20.4 -29.4,17l-87.4,-23.4c-9.4,-2.5 -16.3,-10.4 -17.6,-20c-1.3,-9.6 3.4,-19.1 11.8,-23.9l28.4,-16.4l-37.5,-59.9c-5.8,-9.3 -16,-15 -27,-15c-11,0 -21.2,5.7 -27,15l-17.5,28c-9.2,14.8 -28.6,19.5 -43.6,10.5c-15.3,-9.2 -20.2,-29.2 -10.7,-44.4l17.5,-28Zm254.8,206.8c15,-9 34.4,-4.3 43.6,10.5l24.4,39.1c9.4,15.1 14.4,32.4 14.6,50.2c0.3,53.1 -42.7,96.4 -95.8,96.4l-96.3,-0.1l-0,32c-0,9.7 -5.8,18.5 -14.8,22.2c-9,3.7 -19.3,1.7 -26.2,-5.2l-64,-64c-9.4,-9.4 -9.4,-24.6 -0,-33.9l64,-64c6.9,-6.9 17.2,-8.9 26.2,-5.2c9,3.7 14.8,12.5 14.8,22.2l-0,32l96.2,0c17.6,0 31.9,-14.4 31.8,-32c-0,-5.9 -1.7,-11.7 -4.8,-16.7l-24.4,-39.1c-9.5,-15.2 -4.7,-35.2 10.7,-44.4Zm-364.6,-31l-28.9,-16.7c-8.4,-4.9 -13.1,-14.3 -11.8,-23.9c1.3,-9.6 8.2,-17.5 17.6,-20l87.4,-23.4c12.8,-3.4 26,4.2 29.4,17l23.4,87.3c2.5,9.4 -0.9,19.3 -8.6,25.3c-7.7,6 -18.2,6.6 -26.6,1.7l-26.5,-15.3l-51.5,82.4c-3.1,5 -4.8,10.8 -4.8,16.7c-0.1,17.6 14.2,32 31.8,32l32.2,0c17.7,0 32,14.3 32,32c-0,17.7 -14.3,32 -32,32l-32.2,0c-53.1,0 -96.1,-43.2 -95.8,-96.4c0.1,-17.8 5.1,-35.1 14.6,-50.2l50.3,-80.5Z" style="fill-rule:nonzero;"/><clipPath id="_clip1"><path d="M174.7,45.1c17.5,-28.1 48.3,-45.1 81.3,-45.1c33,0 63.8,17 81.3,45.1l38.6,61.7l27,-15.6c8.4,-4.9 18.9,-4.2 26.6,1.7c7.7,5.9 11.1,15.9 8.6,25.3l-23.4,87.4c-3.4,12.8 -16.6,20.4 -29.4,17l-87.4,-23.4c-9.4,-2.5 -16.3,-10.4 -17.6,-20c-1.3,-9.6 3.4,-19.1 11.8,-23.9l28.4,-16.4l-37.5,-59.9c-5.8,-9.3 -16,-15 -27,-15c-11,0 -21.2,5.7 -27,15l-17.5,28c-9.2,14.8 -28.6,19.5 -43.6,10.5c-15.3,-9.2 -20.2,-29.2 -10.7,-44.4l17.5,-28Zm254.8,206.8c15,-9 34.4,-4.3 43.6,10.5l24.4,39.1c9.4,15.1 14.4,32.4 14.6,50.2c0.3,53.1 -42.7,96.4 -95.8,96.4l-96.3,-0.1l-0,32c-0,9.7 -5.8,18.5 -14.8,22.2c-9,3.7 -19.3,1.7 -26.2,-5.2l-64,-64c-9.4,-9.4 -9.4,-24.6 -0,-33.9l64,-64c6.9,-6.9 17.2,-8.9 26.2,-5.2c9,3.7 14.8,12.5 14.8,22.2l-0,32l96.2,0c17.6,0 31.9,-14.4 31.8,-32c-0,-5.9 -1.7,-11.7 -4.8,-16.7l-24.4,-39.1c-9.5,-15.2 -4.7,-35.2 10.7,-44.4Zm-364.6,-31l-28.9,-16.7c-8.4,-4.9 -13.1,-14.3 -11.8,-23.9c1.3,-9.6 8.2,-17.5 17.6,-20l87.4,-23.4c12.8,-3.4 26,4.2 29.4,17l23.4,87.3c2.5,9.4 -0.9,19.3 -8.6,25.3c-7.7,6 -18.2,6.6 -26.6,1.7l-26.5,-15.3l-51.5,82.4c-3.1,5 -4.8,10.8 -4.8,16.7c-0.1,17.6 14.2,32 31.8,32l32.2,0c17.7,0 32,14.3 32,32c-0,17.7 -14.3,32 -32,32l-32.2,0c-53.1,0 -96.1,-43.2 -95.8,-96.4c0.1,-17.8 5.1,-35.1 14.6,-50.2l50.3,-80.5Z" clip-rule="nonzero"/></clipPath><g clip-path="url(#_clip1)"><path d="M64.9,220.9l-28.9,-16.7c-8.4,-4.9 -13.1,-14.3 -11.8,-23.9c1.3,-9.6 8.2,-17.5 17.6,-20l87.4,-23.4c12.8,-3.4 26,4.2 29.4,17l23.4,87.3c2.5,9.4 -0.9,19.3 -8.6,25.3c-7.7,6 -18.2,6.6 -26.6,1.7l-26.5,-15.3l-51.5,82.4c-3.1,5 -4.8,10.8 -4.8,16.7c-0.1,17.6 14.2,32 31.8,32l32.2,0c17.7,0 32,14.3 32,32c0,17.7 -14.3,32 -32,32l-32.2,0c-53.1,0 -96.1,-43.2 -95.8,-96.4c0.1,-17.8 5.1,-35.1 14.6,-50.2l50.3,-80.5Z" style="fill:#6e6e6e;"/><path d="M174.7,45.1c17.5,-28.1 48.3,-45.1 81.3,-45.1c33,0 63.8,17 81.3,45.1l38.6,61.7l27,-15.6c8.4,-4.9 18.9,-4.2 26.6,1.7c7.7,5.9 11.1,15.9 8.6,25.3l-23.4,87.4c-3.4,12.8 -16.6,20.4 -29.4,17l-87.4,-23.4c-9.4,-2.5 -16.3,-10.4 -17.6,-20c-1.3,-9.6 3.4,-19.1 11.8,-23.9l28.4,-16.4l-37.5,-59.9c-5.8,-9.3 -16,-15 -27,-15c-11,0 -21.2,5.7 -27,15l-17.5,28c-9.2,14.8 -28.6,19.5 -43.6,10.5c-15.3,-9.2 -20.2,-29.2 -10.7,-44.4l17.5,-28Z" style="fill:#6e6e6e;"/><path d="M429.5,251.9c15,-9 34.4,-4.3 43.6,10.5l24.4,39.1c9.4,15.1 14.4,32.4 14.6,50.2c0.3,53.1 -42.7,96.4 -95.8,96.4l-96.3,-0.1l0,32c0,9.7 -5.8,18.5 -14.8,22.2c-9,3.7 -19.3,1.7 -26.2,-5.2l-64,-64c-9.4,-9.4 -9.4,-24.6 0,-33.9l64,-64c6.9,-6.9 17.2,-8.9 26.2,-5.2c9,3.7 14.8,12.5 14.8,22.2l0,32l96.2,0c17.6,0 31.9,-14.4 31.8,-32c0,-5.9 -1.7,-11.7 -4.8,-16.7l-24.4,-39.1c-9.5,-15.2 -4.7,-35.2 10.7,-44.4Z" style="fill:#6e6e6e;"/></g></svg>