<svg xmlns="http://www.w3.org/2000/svg" viewBox="0 0 24 24">
  <path d="M4.9902344 3.9902344 A 1.0001 1.0001 0 0 0 4.2929688 5.7070312L10.585938 12L4.2929688 18.292969 A 1.0001 1.0001 0 1 0 5.7070312 19.707031L12 13.414062L18.292969 19.707031 A 1.0001 1.0001 0 1 0 19.707031 18.292969L13.414062 12L19.707031 5.7070312 A 1.0001 1.0001 0 0 0 18.980469 3.9902344 A 1.0001 1.0001 0 0 0 18.292969 4.2929688L12 10.585938L5.7070312 4.2929688 A 1.0001 1.0001 0 0 0 4.9902344 3.9902344 z" fill="#969696" />
</svg>