/* XPM */
static char *MediathekView[] = {
/* columns rows colors chars-per-pixel */
"32 32 155 2 ",
"   c #1F1B1C",
".  c #221E1E",
"X  c #31261F",
"o  c #231F20",
"O  c #252122",
"+  c #2B2524",
"@  c #272429",
"#  c #2A2628",
"$  c #2D2A2C",
"%  c #3A2C23",
"&  c #332C2D",
"*  c #2B2935",
"=  c #312D33",
"-  c #343234",
";  c #3A3436",
":  c #35303A",
">  c #39353A",
",  c #3D3B3D",
"<  c #402F21",
"1  c #493629",
"2  c #463732",
"3  c #4A3A37",
"4  c #413E3F",
"5  c #483A3A",
"6  c #523E33",
"7  c #63421F",
"8  c #53413C",
"9  c #65462B",
"0  c #78512E",
"q  c #353244",
"w  c #383445",
"e  c #32334A",
"r  c #38364B",
"t  c #454243",
"y  c #484547",
"u  c #474649",
"i  c #484648",
"p  c #4B4A4C",
"a  c #544446",
"s  c #4D455C",
"d  c #514655",
"f  c #525255",
"g  c #55575C",
"h  c #585759",
"j  c #55585D",
"k  c #644E4B",
"l  c #6D534C",
"z  c #7E5B44",
"x  c #7A5B4F",
"c  c #795B51",
"v  c #715959",
"b  c #7F6059",
"n  c #474565",
"m  c #534B62",
"M  c #574F6C",
"N  c #5E5267",
"B  c #4E4E7A",
"V  c #534F73",
"C  c #545178",
"Z  c #67596D",
"A  c #6F5E71",
"S  c #626265",
"D  c #696667",
"F  c #686A6F",
"G  c #766272",
"H  c #7A6470",
"J  c #716F70",
"K  c #6E747B",
"L  c #737375",
"P  c #75767A",
"I  c #76797E",
"U  c #7B7B7D",
"Y  c #8B5925",
"T  c #8C5F39",
"R  c #9B642C",
"E  c #986843",
"W  c #8C695E",
"Q  c #946C5A",
"!  c #876864",
"~  c #8A6A67",
"^  c #916E66",
"/  c #54568C",
"(  c #5B5A8B",
")  c #545A9B",
"_  c #5A5E9F",
"`  c #766887",
"'  c #7A6985",
"]  c #716589",
"[  c #776988",
"{  c #7D7E81",
"}  c #676293",
"|  c #7C6F95",
" . c #736D9F",
".. c #5F66B1",
"X. c #7370AD",
"o. c #656BB7",
"O. c #6B70BD",
"+. c #7372B4",
"@. c #7A77BB",
"#. c #646EC5",
"$. c #6370CD",
"%. c #7578CA",
"&. c #867188",
"*. c #897591",
"=. c #8175A3",
"-. c #7D8186",
";. c #7B838C",
":. c #7E80D3",
">. c #83868A",
",. c #8C8A8B",
"<. c #838C95",
"1. c #8D8F92",
"2. c #8E949A",
"3. c #94979A",
"4. c #95989D",
"5. c #929DA8",
"6. c #96A1AC",
"7. c #A0A0A2",
"8. c #A1A5AA",
"9. c #A9AAAC",
"0. c #A4ACB4",
"q. c #A1ADB8",
"w. c #A6B2BD",
"e. c #ABB3BB",
"r. c #B1B5BA",
"t. c #B4B8BD",
"y. c #BBBBBC",
"u. c #A8B4C0",
"i. c #AFBDC9",
"p. c #B3BAC1",
"a. c #BEBFC2",
"s. c #BBC5CE",
"d. c #B7C5D2",
"f. c #BCCCDA",
"g. c #C9C9CB",
"h. c #C4CCD2",
"j. c #CFCFD1",
"k. c #C5D0D9",
"l. c #C9D4DD",
"z. c #D3D3D5",
"x. c #D4DADF",
"c. c #D9DBDD",
"v. c #D4DCE4",
"b. c #DADDE0",
"n. c #DAE0E6",
"m. c #DDE4EA",
"M. c #E0E1E3",
"N. c #E6E7E8",
"B. c #EBECEE",
"V. c #E3EAF0",
"C. c #EBEEF1",
"Z. c #F2F4F6",
"A. c #F4F6F8",
"S. c #F6F9FC",
"D. c None",
/* pixels */
"D.D.D.D.D.D.D.D.D.D.D.D.D.D.D.D.D.D.D.D.D.D.D.D.D.D.D.D.D.D.D.D.",
"D.D.D.D.D.D.D.D.D.D.D.D.D.D.D.D.D.D.D.D.D.D.D.D.D.D.D.D.D.D.D.D.",
"D.D.D.D.D.D.D.D.D.D.D.D.D.D.D.D.D.D.D.D.D.w.<.$ D.D.D.D.D.D.D.D.",
"D.D.D.D.D.D.D.D.D.D.D.D.D.D.D.D.D.D.D.. , w.f.K O D.D.D.D.D.D.D.",
"D.D.D.D.D.D.D.D.D.D.D.D.D.D.D.D.e.p.f   . f i.w.f D.D.D.D.D.D.D.",
"D.D.D.D.D.D.D.D.D.D.D.D.D.D.  f h.v.e., O $ F I D.D.D.D.D.D.D.D.",
"D.D.D.D.D.D.D.D.D.D.D.D.r.,   O K l.k.-.> D.D.D.D.D.D.D.D.D.D.D.",
"D.D.D.D.D.D.D.D.D.. h v.V.8.& o = >.>.D.D.D.D.D.D.D.D.D.D.D.D.D.",
"D.D.D.D.D.D.D.y.4 . O { m.n.P ; t D.D.D.D.D.D.D.D.D.D.D.D.D.D.D.",
"D.D.D.D.D.N.Z.A.9.$ . & 1.3.D.D.D.D.D.D.D.D.D.D.D.D.D.D.D.D.D.D.",
"D.D.D.D.D y.B.S.C.U & , D.D.D.D.D.D.D.D.D.D.# ;.6.<.D.D.D.D.D.D.",
"D.D.D.D.. p j.z.7.U D.D.D.3.p.S . O 2.s.u . - u.f.5.# D.D.D.D.D.",
"D.D.D.D.o . f g.c.b.f   ; g.m.S   # e.s.>   p d.f.;.. D.D.D.D.D.",
"D.D.D.D.D.. t M.S.b.4   p n.v.i   > s.0.#   j q.6.j . D.D.D.D.D.",
"D.D.D.D.D.J z.A.Z.s.X . h t.4.& . = S p O o # & # O o D.D.D.D.D.",
"D.D.D.D.D.L ,.L S y O . @ # O O o . . o o o o o o o o D.D.D.D.D.",
"D.D.D.D.D.. . . . . o o o o . . o o o o . o o o o o . D.D.D.D.D.",
"D.D.D.D.D.. . O . o o o o o . . o o o o O . + X o o O D.D.D.D.D.",
"D.D.D.D.D.o . o . o o o o + ; ; # 8 2 o O % Y 7 o o o D.D.D.D.D.",
"D.D.D.D.D.o O . r ( C @ . d &.H & b x O . 9 R < . o o D.D.D.D.D.",
"D.D.D.D.D.o o . B :.@.w * ` *.G @ k W % X T 0 O O . O . D.D.D.D.",
"D.D.D.D.D.o o . / %.X.V m ] ' A O 3 ^ 3 6 E 1 . . O . . D.D.D.D.",
"D.D.D.D.D.o o o _ #.C X. .s [ Z o & ! l z z @ . o O . . D.D.D.D.",
"D.D.D.D.D.. o + ..o.w +.} : | N o o v ^ Q 6 . O . . O . D.D.D.D.",
"D.D.D.D.D.D.. # #...# n w : =.m . o a ~ c X . o O . . . D.D.D.D.",
"D.D.D.D.D.D.o * $.) o . o = M > o o + $ # . O o . O O o D.D.D.D.",
"D.D.D.D.D.D.o @ e * o o o o o o o o o o o o o o O o o . D.D.D.D.",
"D.D.D.D.D.D.. . . . o o o o o o o o o o O o o o . o o o D.D.D.D.",
"D.D.D.D.D.D.o o o o o o o o o o o o o o O . o O o o O o D.D.D.D.",
"D.D.D.D.D.D.o o o o o o o o o o o o o o o . . D.D.D.D.D.D.D.D.D.",
"D.D.D.D.D.D.o o o o o o D.D.D.D.D.D.D.D.D.D.D.D.D.D.D.D.D.D.D.D.",
"D.D.D.D.D.D.D.D.D.D.D.D.D.D.D.D.D.D.D.D.D.D.D.D.D.D.D.D.D.D.D.D."
};
