<?xml version="1.0" encoding="UTF-8" standalone="no"?>
<!DOCTYPE svg PUBLIC "-//W3C//DTD SVG 1.1//EN" "http://www.w3.org/Graphics/SVG/1.1/DTD/svg11.dtd">
<svg width="100%" height="100%" viewBox="0 0 115 64" version="1.1" xmlns="http://www.w3.org/2000/svg"
     xml:space="preserve"
     style="fill-rule:evenodd;clip-rule:evenodd;stroke-linejoin:round;stroke-miterlimit:2;">
    <g transform="matrix(0.633663,0,0,0.633663,110.384,-88.1426)">
        <path d="M-56.65,182.5C-59.145,182.026 -61.807,180.734 -63.663,179.098L-65.074,177.854L-61.305,174.056L-60.239,174.992C-58.387,176.618 -55.976,177.564 -53.661,177.571C-51.359,177.578 -50.073,177.018 -49.455,175.739C-48.642,174.056 -49.925,172.391 -52.855,171.326C-59.732,168.826 -61.174,167.948 -62.269,165.596C-64.01,161.856 -62.485,157.781 -58.723,156.123C-54.281,154.166 -48.776,154.839 -44.803,157.825L-42.875,159.273L-44.654,161.068C-45.632,162.055 -46.503,162.863 -46.59,162.863C-46.676,162.863 -47.423,162.354 -48.25,161.734C-51.472,159.313 -55.577,159.25 -56.474,161.608C-57.093,163.236 -55.886,164.331 -52.094,165.582C-45.689,167.695 -43.412,169.638 -42.783,173.526C-42.379,176.022 -43.785,179.238 -45.927,180.718C-48.526,182.514 -52.826,183.229 -56.647,182.502L-56.65,182.5ZM-32.48,182.609C-35.24,182.122 -37.521,180.562 -38.445,178.527C-39.211,176.841 -39.148,173.835 -38.308,172.031C-36.734,168.65 -32.308,166.55 -24.718,165.582L-21.896,165.222L-21.962,164.145C-22.05,162.725 -22.817,161.462 -24.022,160.754C-24.788,160.305 -25.459,160.186 -27.116,160.209C-29.48,160.242 -30.615,160.64 -32.548,162.115L-33.82,163.087L-37.417,159.432L-36.288,158.443C-33.376,155.892 -28.665,154.577 -24.648,155.192C-20.43,155.838 -17.662,157.819 -16.332,161.145C-15.732,162.647 -15.698,163.166 -15.605,172.385L-15.507,182.051L-21.473,182.051L-21.473,179.439L-22.39,180.182C-23.858,181.372 -25.349,182.064 -27.359,182.49C-29.405,182.924 -30.537,182.95 -32.48,182.607L-32.48,182.609ZM-25.479,177.088C-22.99,175.848 -21.755,173.756 -21.755,170.78C-21.755,169.433 -21.708,169.443 -25.233,170.058C-29.623,170.823 -31.703,171.951 -32.47,173.98C-32.909,175.142 -32.373,176.592 -31.251,177.276C-29.902,178.098 -27.338,178.015 -25.479,177.088L-25.479,177.088ZM-3.299,182.626C-6.091,182.03 -7.821,180.796 -9.002,178.559L-9.764,177.114L-9.928,152.314L-7.029,149.405C-5.435,147.805 -3.833,146.365 -3.831,146.484C-3.829,146.625 -3.696,148.591 -3.696,151.152L-3.696,155.809L4.228,155.809L4.065,160.748L-3.696,160.905L-3.696,175.605L-2.871,176.43C-2.193,177.108 -1.81,177.255 -0.717,177.255C0.149,177.255 0.953,177.045 1.59,176.651L2.568,176.046L6.322,179.827L5.476,180.543C3.308,182.375 -0.378,183.25 -3.299,182.627L-3.299,182.626Z" style="fill:rgb(45,56,62);fill-rule:nonzero;"/>
        <rect x="-174.2" y="139.1" width="101" height="101" style="fill:rgb(228,10,34);"/>
        <path d="M-128.1,224.5C-128.488,224.431 -129.568,224.242 -130.499,224.081C-137.778,222.819 -144.719,218.288 -149.399,211.741L-150.462,210.253L-145.578,205.25C-142.892,202.498 -140.606,200.209 -140.499,200.163C-140.417,200.259 -139.997,200.859 -139.252,201.96C-135.959,207.848 -130.086,211.166 -123.732,210.731C-115.928,210.195 -110.832,204.658 -111.232,197.141C-111.383,194.272 -112.42,191.917 -114.565,189.574L-116.07,187.93L-106.111,177.971L-105.08,178.95C-103.478,180.472 -100.86,183.848 -99.775,185.789C-95.579,193.305 -95.703,202.999 -100.094,210.829C-101.904,214.055 -106.405,218.599 -109.626,220.452C-114.476,223.241 -118.301,224.34 -123.736,224.508C-125.754,224.57 -127.722,224.565 -128.11,224.496L-128.1,224.5ZM-128.174,187.76C-130.617,185.313 -132.616,183.186 -132.616,183.032C-132.616,182.675 -105.876,155.922 -105.686,156.092C-105.611,156.163 -103.505,158.247 -101.006,160.723L-96.462,165.225L-109.952,178.715C-117.37,186.134 -123.502,192.205 -123.582,192.205C-123.662,192.205 -125.726,190.203 -128.169,187.757L-128.174,187.76ZM-136.999,167.65L-149.689,154.95L-108.209,154.95L-120.899,167.65L-136.999,167.65Z" style="fill:white;fill-rule:nonzero;"/>
    </g>
</svg>
