<?xml version="1.0" encoding="UTF-8" standalone="no"?>
<!DOCTYPE svg PUBLIC "-//W3C//DTD SVG 1.1//EN" "http://www.w3.org/Graphics/SVG/1.1/DTD/svg11.dtd">
<svg width="100%" height="100%" viewBox="0 0 162 64" version="1.1" xmlns="http://www.w3.org/2000/svg"
     xml:space="preserve"
     style="fill-rule:evenodd;clip-rule:evenodd;stroke-linejoin:round;stroke-miterlimit:2;">
    <g transform="matrix(1,0,0,1,-0.0273889,1.33227e-15)">
        <g id="text2987" transform="matrix(0.645851,0,0,0.645851,-3.20018,-3.22925)">
            <path d="M132.39,80.281L132.39,97.812L134.171,97.812L134.171,80.281L132.39,80.281ZM144.39,80.281L144.39,85.844C143.573,85.771 142.899,85.75 142.202,85.75C138.478,85.75 136.046,88.122 136.046,92.375C136.046,95.859 137.497,98.031 140.452,98.031C142.375,98.031 143.905,96.893 144.577,95.187L144.609,95.218C144.465,95.939 144.39,97.091 144.39,97.812L146.171,97.812L146.171,80.281L144.39,80.281L144.39,80.281ZM195.015,80.281L195.015,97.812L196.796,97.812L196.796,91.562L201.515,97.812L203.859,97.812L198.734,91.312L203.484,85.875L201.296,85.875L196.796,91.25L196.796,80.281L195.015,80.281L195.015,80.281ZM239.421,80.281L239.421,97.812L241.202,97.812L241.202,80.281L239.421,80.281ZM128.231,81.281C127.658,81.396 127.231,81.911 127.231,82.5C127.231,83.197 127.784,83.719 128.481,83.719C129.154,83.719 129.731,83.197 129.731,82.5C129.731,81.827 129.154,81.281 128.481,81.281C128.394,81.281 128.313,81.265 128.231,81.281ZM61.346,81.5C59.472,81.5 57.963,81.522 56.69,81.594L56.69,97.813L59.815,97.813L59.815,91.125L59.909,91.125L64.44,97.813L68.315,97.813L64.409,92.375C64,91.823 63.553,91.195 63.096,90.594C65.547,90.21 67.221,88.465 67.221,86.063C67.221,82.747 64.926,81.5 61.346,81.5L61.346,81.5ZM75.721,81.5C73.727,81.5 71.744,81.577 70.471,81.625L70.471,97.781C71.84,97.829 73.32,97.906 75.002,97.906C80.288,97.906 83.94,95.012 83.94,89.437C83.94,83.743 80.743,81.5 75.721,81.5L75.721,81.5ZM119.846,81.531C117.9,81.531 116.42,81.57 115.315,81.594L115.315,97.813C116.708,97.837 118.236,97.906 119.221,97.906C124.339,97.906 125.408,94.785 125.408,93.031C125.408,91.302 124.374,89.642 121.971,89.281L121.971,89.219C123.797,88.69 125.033,87.153 125.033,85.375C125.033,83.021 123.378,81.531 119.846,81.531L119.846,81.531ZM45.627,81.594L39.939,97.813L43.096,97.813L44.221,94.5L50.346,94.5L51.502,97.813L54.939,97.813L49.158,81.594L45.627,81.594ZM119.502,83.031C122.361,83.031 123.096,84.15 123.096,85.687C123.096,87.61 121.604,88.75 118.721,88.75C118.096,88.75 117.663,88.743 117.158,88.719L117.158,83.063C117.855,83.038 118.709,83.031 119.502,83.031L119.502,83.031ZM61.025,84.061C62.995,84.061 63.963,84.812 63.963,86.374C63.963,87.887 62.805,88.843 60.931,88.843C60.451,88.843 60.023,88.835 59.806,88.811L59.806,84.124C60.119,84.076 60.569,84.061 61.025,84.061L61.025,84.061ZM75.494,84.124C79.194,84.124 80.557,86.202 80.557,89.686C80.557,93.531 78.358,95.249 75.307,95.249C74.682,95.249 74.02,95.196 73.588,95.124L73.588,84.186C74.092,84.138 74.773,84.123 75.494,84.123L75.494,84.124ZM47.244,85.186L47.275,85.186C47.467,86.099 47.713,86.891 48.025,87.78L49.525,92.03L45.025,92.03L46.494,87.905C46.806,86.968 47.052,86.027 47.244,85.186L47.244,85.186ZM167.524,85.625C165.434,85.625 163.947,86.802 163.274,88.531L163.212,88.531C163.332,87.811 163.399,86.644 163.399,85.875L161.618,85.875L161.618,97.813L163.43,97.813L163.43,92.063C163.43,89.228 164.948,87.126 167.087,87.126C168.816,87.126 169.305,88.22 169.305,90.095L169.305,97.813L171.118,97.813L171.118,89.47C171.118,87.355 170.263,85.626 167.524,85.626L167.524,85.625ZM221.743,85.625C219.653,85.625 218.135,86.802 217.462,88.531L217.399,88.531C217.519,87.811 217.618,86.644 217.618,85.875L215.837,85.875L215.837,97.813L217.618,97.813L217.618,92.063C217.618,89.228 219.136,87.126 221.274,87.126C223.004,87.126 223.524,88.22 223.524,90.095L223.524,97.813L225.305,97.813L225.305,89.47C225.305,87.355 224.482,85.626 221.743,85.626L221.743,85.625ZM178.524,85.656C175.28,85.656 173.337,87.783 173.337,90.281C173.337,91.819 173.916,93.054 175.118,93.75C174.277,94.135 173.805,94.871 173.805,95.688C173.805,96.457 174.248,97.07 174.993,97.407C173.863,97.983 172.93,99.104 172.93,100.594C172.93,102.877 174.872,104.094 177.899,104.094C181.575,104.094 184.18,102.211 184.18,99.688C184.18,97.598 182.775,96.344 180.18,96.344L177.836,96.344C176.347,96.344 175.68,96.01 175.68,95.313C175.68,94.88 175.955,94.467 176.555,94.25C176.988,94.347 177.659,94.407 178.211,94.407C181.647,94.407 183.399,92.453 183.399,89.907C183.399,88.777 182.939,87.834 182.243,87.282L184.399,87.282L184.399,85.875L180.336,85.875C179.712,85.731 179.197,85.657 178.524,85.657L178.524,85.656ZM189.868,85.656C186.841,85.656 185.181,87.162 185.181,89.156C185.181,93.409 191.024,91.617 191.024,94.5C191.024,95.75 189.817,96.531 188.087,96.531C187.15,96.531 186.168,96.341 185.399,96.125L185.368,97.781C186.089,97.926 187.01,98.031 187.899,98.031C191.023,98.031 192.868,96.365 192.868,94.25C192.868,90.19 187.056,91.828 187.056,88.969C187.056,87.792 187.895,87.094 189.649,87.094C190.466,87.094 191.356,87.236 192.149,87.5L192.181,85.938C191.436,85.794 190.613,85.657 189.868,85.657L189.868,85.656ZM208.587,85.656C206.977,85.656 205.591,86.058 204.462,86.563L204.618,88.125C205.675,87.453 207.121,87.094 208.274,87.094C210.341,87.094 210.993,88.105 210.993,89.907L210.993,90.907C206.332,90.907 203.743,92.627 203.743,95.125C203.743,97.023 205.095,98.032 206.993,98.032C209.036,98.032 210.573,96.826 211.149,95.313L211.212,95.313C211.092,96.01 211.087,96.9 211.087,97.813L212.868,97.813C212.82,96.756 212.806,95.428 212.806,94.25L212.806,89.563C212.806,87.304 211.879,85.657 208.587,85.657L208.587,85.656ZM232.149,85.656C230.539,85.656 229.153,86.058 228.024,86.563L228.18,88.125C229.237,87.453 230.683,87.094 231.836,87.094C233.903,87.094 234.555,88.105 234.555,89.907L234.555,90.907C229.894,90.907 227.305,92.627 227.305,95.125C227.305,97.023 228.688,98.032 230.586,98.032C232.629,98.032 234.166,96.826 234.743,95.313L234.774,95.313C234.654,96.01 234.649,96.9 234.649,97.813L236.43,97.813C236.382,96.756 236.399,95.428 236.399,94.25L236.399,89.563C236.399,87.304 235.441,85.657 232.149,85.657L232.149,85.656ZM127.529,85.875L127.529,97.813L129.342,97.813L129.342,85.875L127.529,85.875ZM149.154,85.875L149.154,94.219C149.154,96.333 150.009,98.063 152.748,98.063C154.838,98.063 156.356,96.887 157.029,95.157L157.06,95.188C156.94,95.909 156.873,97.044 156.873,97.813L158.654,97.813L158.654,85.875L156.841,85.875L156.841,91.625C156.841,94.46 155.355,96.562 153.216,96.562C151.487,96.562 150.966,95.499 150.966,93.625L150.966,85.875L149.154,85.875L149.154,85.875ZM178.435,87.063C180.405,87.063 181.591,88.172 181.591,90.094C181.591,92.016 180.311,93.063 178.341,93.063C176.323,93.063 175.154,92.04 175.154,90.094C175.154,88.34 176.369,87.063 178.435,87.063L178.435,87.063ZM142.029,87.156C142.798,87.156 143.556,87.246 144.373,87.438L144.373,91.657C144.373,93.771 143.189,96.563 140.81,96.563C138.84,96.563 137.935,94.941 137.935,92.25C137.935,88.646 139.578,87.156 142.029,87.156L142.029,87.156ZM118.717,90.125C121.384,90.125 123.498,90.812 123.498,93.094C123.498,94.992 122.232,96.407 119.373,96.407C118.316,96.407 117.587,96.322 117.154,96.25L117.154,90.157C117.539,90.133 118.429,90.125 118.717,90.125L118.717,90.125ZM210.998,92.219L210.998,92.407C210.998,94.473 209.612,96.563 207.498,96.563C206.321,96.563 205.529,95.863 205.529,94.782C205.529,93.628 206.505,92.219 210.998,92.219ZM234.56,92.219L234.56,92.407C234.56,94.473 233.174,96.563 231.06,96.563C229.883,96.563 229.123,95.863 229.123,94.782C229.123,93.628 230.067,92.219 234.56,92.219ZM176.435,97.875C176.651,97.899 176.976,97.906 177.216,97.906L179.654,97.906C181.48,97.906 182.373,98.664 182.373,99.938C182.373,101.524 180.835,102.625 178.216,102.625C176.222,102.625 174.748,101.819 174.748,100.281C174.748,99.272 175.402,98.404 176.435,97.875L176.435,97.875Z" style="fill:rgb(0,26,75);fill-rule:nonzero;"/>
        </g>
        <g id="_46617464" transform="matrix(0.645851,0,0,0.645851,-3.20018,-3.22925)">
            <path d="M240.57,5C232.401,5 225.789,11.632 225.789,19.781C225.789,27.978 232.401,34.625 240.57,34.625C248.736,34.625 255.351,27.979 255.351,19.781C255.361,11.632 248.741,5 240.571,5L240.57,5ZM240.57,7.188C247.504,7.188 253.195,12.828 253.195,19.782C253.195,26.782 247.504,32.47 240.57,32.47C233.636,32.47 227.945,26.783 227.945,19.782C227.945,12.828 233.636,7.188 240.57,7.188ZM72.76,10.844C72.2,10.844 71.76,11.301 71.76,11.844L71.76,74.656C71.76,75.199 72.201,75.656 72.76,75.656L81.635,75.656C82.195,75.656 82.635,75.198 82.635,74.656L82.635,11.844C82.635,11.301 82.195,10.844 81.635,10.844L72.76,10.844ZM140.418,10.875C139.858,10.875 139.418,11.332 139.418,11.875L139.418,74.656C139.418,75.214 139.858,75.656 140.418,75.656L149.324,75.656C149.883,75.656 150.324,75.213 150.324,74.656L150.324,55.25C150.324,47.833 154.667,41.531 160.199,41.531C164.202,41.531 165.387,44.163 165.387,48.594L165.356,74.656C165.356,75.213 165.814,75.656 166.356,75.656L175.199,75.656C175.741,75.656 176.199,75.212 176.199,74.656L176.199,45.968C176.199,38.564 173.137,32.437 163.605,32.437C157.06,32.437 152.2,35.583 149.73,40.343L149.53,40.25C150.13,37.777 150.312,34.214 150.312,31.656L150.312,11.875C150.312,11.331 149.87,10.875 149.312,10.875L140.405,10.875L140.418,10.875ZM246.578,10.969L231.64,16.344L231.64,20.031L236.578,18.25L236.578,29.375L246.578,25.813L246.578,10.969L246.578,10.969ZM30.728,30.906C22.54,30.906 14.682,38.986 10.509,45.718C8.566,49.133 5.97,54.562 5.228,59.937C4.481,65.296 5.357,71.112 10.728,74.156C18.861,78.787 27.531,74.77 33.603,70.125C34.148,69.739 34.693,69.247 35.322,68.718C36.88,67.389 38.2,66.083 39.228,64.968C39.257,64.925 39.324,64.855 39.353,64.812C40.622,63.483 41.946,62.033 43.259,60.531L43.415,60.843C47.831,68.733 53.648,76.326 62.509,75.655C63.581,75.47 63.558,74.549 63.572,73.405C63.586,71.176 63.509,66.155 63.509,66.155C63.538,65.356 62.927,64.944 61.884,64.843C61.398,64.8 60.463,64.788 59.947,64.53C57.59,63.373 56.468,61.24 54.541,58.124C53.267,56.066 52.083,53.829 50.853,51.499C53.355,48.426 63.166,36.03 63.165,36.03C65.924,32.256 64.398,31.998 61.884,31.998L53.915,31.967C52.759,32.024 51.982,32.438 51.696,32.811C51.023,33.654 49.933,35.102 48.79,36.561C47.561,38.162 46.386,39.733 45.196,41.248C41.695,35.561 37.618,30.904 30.727,30.904L30.728,30.906ZM208.508,31.343C200.306,31.343 192.496,39.424 188.32,46.155C186.362,49.57 183.768,55.018 183.039,60.405C182.296,65.764 183.165,71.548 188.539,74.593C199.771,80.981 212.023,70.908 217.039,65.406C217.396,65.02 217.566,64.083 217.164,63.468L212.445,57.406C211.588,56.39 210.668,56.276 209.508,57.406C206.522,60.321 204.919,62.74 200.133,64.812C196.617,66.327 194.648,65.532 193.945,64.374C192.116,61.401 197.206,53.117 197.82,52.03C201.735,45.757 205.849,42.753 208.476,42.624C209.02,42.595 210.02,42.905 211.007,43.905C211.977,44.877 213.001,46.341 214.101,48.155C216.333,51.871 218.651,56.709 221.226,61.311C225.627,69.2 231.256,76.358 240.132,75.686C241.189,75.515 241.163,74.612 241.163,73.468C241.178,71.224 241.101,66.186 241.101,66.186C241.144,65.4 240.535,64.99 239.507,64.905C239.02,64.862 238.086,64.837 237.569,64.593C235.199,63.435 234.374,61.694 232.444,58.593C230.399,55.277 228.773,51.292 226.601,47.405C222.115,39.343 217.712,31.343 208.507,31.343L208.508,31.343ZM116.258,32.031C109.87,32.031 105.366,34.992 102.977,39.937L102.79,39.937C103.034,38.308 103.167,36.339 103.196,34.624C103.21,34.581 103.197,33.687 103.196,33.687C103.196,33.13 102.773,32.687 102.227,32.687L94.102,32.687C93.546,32.687 93.102,33.13 93.102,33.687L93.102,97.031C93.102,97.588 93.546,98.031 94.102,98.031L102.977,98.031C103.537,98.031 104.008,97.588 104.008,97.031L104.008,75.437C105.809,75.694 107.402,75.781 109.446,75.781C124.081,75.781 131.758,66.502 131.758,51.781C131.757,39.262 126.305,32.031 116.258,32.031L116.258,32.031ZM113.102,40.968C118.03,40.968 120.352,45.051 120.352,52.968C120.352,63.444 115.828,67.343 109.696,67.343C107.497,67.343 105.721,67.108 104.008,66.593L104.008,54.843C104.008,47.611 107.399,40.968 113.102,40.968L113.102,40.968ZM30.67,42.186C31.197,42.157 32.214,42.467 33.201,43.467C34.174,44.439 35.287,45.888 36.389,47.717C36.904,48.574 37.452,49.496 37.982,50.467C35.981,52.883 34.04,55.109 32.107,57.124C29.162,59.997 27.072,62.315 22.326,64.374C18.81,65.889 16.869,65.079 16.17,63.936C14.355,60.963 19.431,52.648 20.045,51.561C23.963,45.288 28.054,42.315 30.67,42.186L30.67,42.186Z" style="fill:rgb(219,80,43);"/>
        </g>
    </g>
</svg>
