<?xml version="1.0" encoding="UTF-8" standalone="no"?>
<!DOCTYPE svg PUBLIC "-//W3C//DTD SVG 1.1//EN" "http://www.w3.org/Graphics/SVG/1.1/DTD/svg11.dtd">
<svg width="100%" height="100%" viewBox="0 0 140 64" version="1.1" xmlns="http://www.w3.org/2000/svg"
     xml:space="preserve"
     style="fill-rule:evenodd;clip-rule:evenodd;stroke-linejoin:round;stroke-miterlimit:2;">
    <g transform="matrix(1,0,0,1,-1,-0.5)">
        <g transform="matrix(0.603774,0,0,0.603774,0.396226,0.198113)">
            <path d="M136,84C145.918,98.094 162.111,106.5 179.345,106.5C208.419,106.5 232.345,82.575 232.345,53.5C232.345,24.425 208.419,0.5 179.345,0.5C162.111,0.5 145.918,8.906 136,23L144,28C152.247,16.403 165.627,9.5 179.857,9.5C203.995,9.5 223.857,29.362 223.857,53.5C223.857,77.638 203.995,97.5 179.857,97.5C165.627,97.5 152.247,90.597 144,79M62,37L69,37C75,37 77,39 77,44C77,49 74,51 69,51L62,51M78,58C84,55 88,51 88,44C88,34 81,29 70,29L52,29L52,78L62,78L62,59L68,59L79,78L90,78M17,60L23,38L30,60L17,60ZM30,29L18,29L1,78L11,78L14,68L33,68L36,78L47,78M107,37L112,37C122,37 127,43 127,54C127,65 122,70 112,70L107,70M97,78L111,78C128,78 137,70 137,53C137,37 129,29 113,29L97,29M197,70L197,26L152,42L152,53L167,48L167,80" style="fill:rgb(0,52,128);fill-rule:nonzero;"/>
        </g>
    </g>
</svg>
