<?xml version="1.0" encoding="UTF-8" standalone="no"?>
<!DOCTYPE svg PUBLIC "-//W3C//DTD SVG 1.1//EN" "http://www.w3.org/Graphics/SVG/1.1/DTD/svg11.dtd">
<svg width="100%" height="100%" viewBox="0 0 264 64" version="1.1" xmlns="http://www.w3.org/2000/svg"
     xml:space="preserve"
     style="fill-rule:evenodd;clip-rule:evenodd;stroke-linejoin:round;stroke-miterlimit:2;">
    <g transform="matrix(1,0,0,1,-0.324062,-0.387267)">
        <g transform="matrix(1,0,0,1,-76.4578,0.111734)">
            <g id="path6" transform="matrix(4.74263e-17,0.77453,-0.77453,4.74263e-17,340.111,0.275533)">
                <path d="M0,153.1L0,119.45C4.98,119.42 9.96,119.41 14.95,119.47C15.06,112.8 14.97,106.12 15,99.44C22.07,99.43 29.14,99.43 36.21,99.44C36.25,106.11 36.2,112.78 36.25,119.44C51.5,119.5 66.75,119.37 82,119.25C82.43,127.04 83.33,134.97 81.66,142.68C80.65,148.08 75.67,152.45 70.13,152.52C58.86,153.26 47.55,153.09 36.25,153.07C36.22,157.67 36.22,162.27 36.22,166.87C29.15,166.9 22.08,166.89 15,166.88C15,162.26 15.07,157.64 14.89,153.02C9.93,153.14 4.96,153.09 -0,153.1Z" style="fill:rgb(250,72,28);fill-rule:nonzero;"/>
            </g>
            <g id="path8" transform="matrix(4.74263e-17,0.77453,-0.77453,4.74263e-17,340.111,0.275533)">
                <path d="M13.89,300.75C12.39,287.47 13.02,273.25 19.44,261.25C22.7,254.7 29.31,249.26 36.95,249.65C52.04,249.85 67.12,249.32 82.21,249.44C82.24,260.66 82.22,271.87 82.22,283.08C75.89,283.1 69.55,283.12 63.21,283.06C64.6,288.25 66.02,293.48 68.28,298.36C69.82,301.24 72.39,304.46 76.05,304.03C78.47,303.47 80.29,301.68 82.19,300.21C82.28,310.7 82.19,321.18 82.24,331.66C82.7,335.56 79.05,338.32 75.78,339.5C70.75,340.45 64.99,340.22 60.83,336.87C53.83,331.69 51.85,322.59 50.2,314.55C49.71,308.69 48.33,302.96 47.62,297.13C47.16,293.29 46.41,289.47 45.16,285.8C44.1,283.13 40.59,282.46 38.27,283.83C36.11,284.92 35.31,287.48 34.86,289.69C34.25,293.77 34.41,298.34 36.86,301.83C38.29,303.76 40.79,304.19 42.98,304.65C43.01,315.4 43,326.15 42.99,336.89C35.44,335.86 27.98,332.44 23.16,326.39C17.1,319.27 15.08,309.77 13.89,300.75Z" style="fill:rgb(250,72,28);fill-rule:nonzero;"/>
            </g>
            <g id="path10" transform="matrix(4.74263e-17,0.77453,-0.77453,4.74263e-17,340.111,0.275533)">
                <path d="M22.95,200.48C14.1,195.44 11.65,183.56 15.03,174.47C22.1,174.39 29.16,174.44 36.22,174.44C36.37,180.04 35.62,185.88 37.66,191.24C39.5,195.64 44.25,198.16 48.89,198.18C60,198.31 71.12,198.15 82.23,198.26C82.12,209.63 82.44,221.01 82.07,232.38C59.82,232.25 37.56,232.33 15.31,232.34C15.35,221.88 15.33,211.42 15.32,200.96C17.87,201.03 20.48,201.23 22.95,200.48Z" style="fill:rgb(250,72,28);fill-rule:nonzero;"/>
            </g>
            <g id="path12" transform="matrix(4.74263e-17,0.77453,-0.77453,4.74263e-17,340.111,0.275533)">
                <path d="M16.66,67.25C12.54,54.08 12.17,39.47 16.84,26.39C19.3,18.77 24.2,11.97 30.79,7.39C40.69,0.43 53.46,-0.85 65.21,0.46C65.24,20.18 65.24,39.91 65.21,59.63C70.8,59.69 76.4,59.65 82,59.66C81.91,68.02 82.18,76.39 81.88,84.73C80.26,86.89 77.7,88 75.41,89.26C65.18,94.91 52.59,95.65 41.49,92.33C29.55,89.09 20.19,78.94 16.66,67.25M35.53,53.05C37.2,58.15 42.63,60.97 47.8,60.73C47.91,51.49 47.57,42.27 47.57,33.04C44.56,33.78 41.28,34.24 38.92,36.45C34,40.33 33.93,47.52 35.53,53.05Z" style="fill:rgb(250,72,28);fill-rule:nonzero;"/>
            </g>
        </g>
    </g>
</svg>
