<?xml version="1.0" encoding="UTF-8" standalone="no"?>
<!DOCTYPE svg PUBLIC "-//W3C//DTD SVG 1.1//EN" "http://www.w3.org/Graphics/SVG/1.1/DTD/svg11.dtd">
<svg width="100%" height="100%" viewBox="0 0 74 64" version="1.1" xmlns="http://www.w3.org/2000/svg"
     xml:space="preserve"
     style="fill-rule:evenodd;clip-rule:evenodd;stroke-linejoin:round;stroke-miterlimit:2;">
    <g transform="matrix(1,0,0,1,0,0.000566806)">
        <g transform="matrix(0.183938,0,0,0.183938,0,-0.000462549)">
            <path d="M301.139,291.82C305.661,296.137 309.37,299.715 309.777,300.079C310.653,300.917 329.236,319.353 351.488,302.211C351.015,301.752 318.88,269.953 291.009,242.719C294.626,258.833 298.013,275.219 301.13,291.821" style="fill-rule:nonzero;"/>
        </g>
        <g transform="matrix(0.183938,0,0,0.183938,0,-0.000462549)">
            <path d="M228.802,330.766C228.802,336.581 233.527,341.305 239.369,341.305C245.174,341.305 249.897,336.581 249.897,330.766L249.897,304.947C243.783,299.952 236.508,293.863 228.801,287.118L228.801,330.766" style="fill-rule:nonzero;"/>
        </g>
        <g transform="matrix(0.183938,0,0,0.183938,0,-0.000462549)">
            <path d="M291.879,93.102L291.879,92.966L291.879,93.102M321.262,320.948C318.509,319.652 298.955,309.557 298.955,309.557C290.925,264.046 281.976,225.943 274.54,197.602C270.341,179.881 265.644,160.85 260.531,141.092C267.049,136.8 286.094,121.819 286.552,92.884C286.552,92.884 286.66,90.454 286.66,88.552L286.66,51.262L396.226,136.371C394.106,126.436 381.057,83.167 336.571,40.868C336.571,40.868 299.253,5.371 275.905,5.371C271.977,5.371 254.378,6.707 254.378,31.421L254.378,75.95C254.378,75.95 254.514,85.14 247.158,85.14L245.378,85.14C241.058,69.929 236.511,54.624 231.815,39.469C231.193,37.485 230.56,35.514 229.939,33.531C223.65,13.18 214.213,6.986 207.714,3.799C203.206,1.585 196.364,-0.129 187.105,0.007C162.892,0.41 158.167,9.75 157.817,13.18C157.264,19.037 158.951,25.813 159.545,28.433C159.747,26.49 159.708,24.478 161.367,22.388C163,20.268 166.643,18.675 171.03,18.675L188.712,18.675C188.712,18.675 190.926,18.675 190.926,20.484C190.926,22.277 188.712,22.277 188.712,22.277L172.57,22.277C169.007,22.277 166.375,23.115 164.783,24.788C164.567,24.976 164.431,25.191 164.297,25.382C164.485,25.302 164.69,25.219 164.933,25.153C165.958,24.896 167.227,24.869 168.388,25.004C170.629,25.342 177.364,27.597 177.147,32.859C177.106,33.641 176.932,34.587 176.688,35.234C170.237,52.186 164.286,68.881 158.766,85.154L152.815,85.154C145.487,85.154 145.62,75.963 145.62,75.963L145.62,31.432C145.62,6.721 128.021,5.383 124.079,5.383C100.718,5.383 63.399,40.879 63.399,40.879C18.924,83.179 5.875,126.448 3.772,136.382L113.339,51.273L113.339,88.564C113.339,90.465 113.446,92.895 113.446,92.895C113.932,124.126 136.079,139.108 140.764,141.914C111.989,238.879 101.03,309.558 101.03,309.558C101.03,309.558 81.487,319.653 78.696,320.949C78.546,321.029 72.623,323.567 75.483,329.75C75.483,329.75 76.686,332.774 79.749,333.341C79.749,333.341 76.94,329.197 80.181,327.672L97.429,320.41C97.429,320.41 89.208,331.047 87.265,333.421C87.144,333.557 82.933,338.441 88.21,342.761C88.21,342.761 90.585,344.948 93.595,344.138C93.595,344.138 89.249,341.615 91.531,338.847L105.163,324.015C105.163,324.015 101.264,335.907 100.101,338.74C100.035,338.917 97.429,344.799 103.72,347.378C103.72,347.378 106.65,348.796 109.276,347.135C109.276,347.135 104.388,345.974 105.755,342.682L109.547,334.233C109.547,334.233 112.947,326.12 117.618,325.31L120.183,324.917C130.332,323.392 134.49,324.823 134.49,324.823C138.404,326.158 135.704,331.288 135.704,331.288C139.144,330.263 140.132,326.631 140.132,326.631C142.319,319.95 135.543,316.995 135.367,316.912C132.074,315.387 129.711,314.333 129.711,314.333C129.711,314.333 169.661,283.939 199.975,252.666C230.289,283.937 270.267,314.333 270.267,314.333C270.267,314.333 267.893,315.387 264.612,316.912C264.424,316.992 257.649,319.95 259.821,326.631C259.821,326.631 260.833,330.26 264.26,331.288C264.26,331.288 261.56,326.161 265.474,324.823C265.474,324.823 269.645,323.391 279.795,324.917L282.346,325.31C287.028,326.12 290.403,334.233 290.403,334.233L294.223,342.682C295.573,345.974 290.702,347.135 290.702,347.135C293.32,348.796 296.259,347.378 296.259,347.378C302.561,344.799 299.943,338.914 299.891,338.74C298.703,335.907 294.816,324.015 294.816,324.015L308.449,338.847C310.716,341.612 306.384,344.138 306.384,344.138C309.381,344.948 311.782,342.761 311.782,342.761C317.059,338.441 312.822,333.557 312.714,333.421C310.771,331.047 302.565,320.41 302.565,320.41L319.786,327.672C323.053,329.197 320.23,333.341 320.23,333.341C323.279,332.775 324.496,329.75 324.496,329.75C327.37,323.569 321.447,321.032 321.269,320.949M184.634,13.026C182.138,13.026 180.087,11.003 180.087,8.465C180.087,5.969 182.138,3.918 184.634,3.918C187.144,3.918 189.184,5.969 189.184,8.465C189.184,11.002 187.147,13.026 184.634,13.026M195.23,96.502C196.095,98.271 197.888,99.484 199.981,99.484C202.087,99.484 203.895,98.256 204.757,96.487C205.095,97.391 205.296,98.403 205.296,99.484C205.296,103.29 202.921,106.366 199.978,106.366C197.062,106.366 194.702,103.29 194.702,99.484C194.702,98.404 194.889,97.406 195.23,96.502M140.027,99.485C140.027,98.404 140.215,97.406 140.539,96.503C141.391,98.272 143.212,99.485 145.305,99.485C147.397,99.485 149.219,98.257 150.081,96.488C150.418,97.392 150.609,98.404 150.609,99.485C150.609,103.291 148.22,106.367 145.304,106.367C142.388,106.367 140.027,103.291 140.027,99.485M140.539,194.183C141.391,195.938 143.212,197.152 145.305,197.152C147.397,197.152 149.219,195.938 150.081,194.17C150.418,195.06 150.609,196.099 150.609,197.18C150.609,200.972 148.22,204.035 145.304,204.035C142.388,204.035 140.027,200.972 140.027,197.18C140.027,196.098 140.215,195.073 140.539,194.183M127.486,277.272C124.57,277.272 122.211,274.209 122.211,270.418C122.211,269.337 122.399,268.325 122.725,267.407C123.59,269.177 125.398,270.389 127.491,270.389C129.596,270.389 131.419,269.162 132.27,267.393C132.606,268.311 132.809,269.336 132.809,270.417C132.809,274.209 130.42,277.271 127.491,277.271M145.304,252.884C142.388,252.884 140.027,249.821 140.027,246.015C140.027,244.962 140.215,243.923 140.539,243.033C141.391,244.789 143.212,246.002 145.305,246.002C147.397,246.002 149.219,244.789 150.081,243.02C150.418,243.924 150.609,244.936 150.609,246.016C150.609,249.822 148.22,252.884 145.304,252.884M154.832,277.272C151.916,277.272 149.556,274.209 149.556,270.418C149.556,269.337 149.744,268.325 150.081,267.407C150.932,269.177 152.74,270.389 154.832,270.389C156.953,270.389 158.746,269.162 159.609,267.393C159.945,268.311 160.133,269.336 160.133,270.417C160.133,274.209 157.759,277.271 154.829,277.271M158.972,228.469C156.042,228.469 153.682,225.406 153.682,221.614C153.682,220.534 153.87,219.508 154.206,218.604C155.071,220.373 156.866,221.586 158.972,221.586C161.078,221.586 162.886,220.358 163.738,218.59C164.076,219.493 164.263,220.533 164.263,221.613C164.263,225.407 161.888,228.469 158.972,228.469M158.972,179.638C156.042,179.638 153.682,176.562 153.682,172.755C153.682,171.689 153.87,170.677 154.206,169.786C155.071,171.542 156.866,172.755 158.972,172.755C161.078,172.755 162.886,171.542 163.738,169.745C164.076,170.648 164.263,171.675 164.263,172.755C164.263,176.562 161.888,179.638 158.972,179.638M158.972,130.78C156.042,130.78 153.682,127.717 153.682,123.925C153.682,122.845 153.87,121.833 154.206,120.929C155.071,122.699 156.866,123.911 158.972,123.911C161.078,123.911 162.886,122.698 163.738,120.901C164.076,121.819 164.263,122.844 164.263,123.924C164.263,127.717 161.888,130.78 158.972,130.78M172.644,252.871C169.714,252.871 167.353,249.808 167.353,246.002C167.353,244.949 167.527,243.91 167.881,243.02C168.732,244.776 170.54,245.989 172.646,245.989C174.739,245.989 176.56,244.776 177.412,243.007C177.764,243.911 177.951,244.923 177.951,246.003C177.951,249.81 175.577,252.872 172.646,252.872M172.646,204.026C169.716,204.026 167.356,200.963 167.356,197.172C167.356,196.091 167.531,195.066 167.884,194.175C168.736,195.931 170.542,197.144 172.65,197.144C174.742,197.144 176.564,195.931 177.415,194.162C177.766,195.053 177.954,196.092 177.954,197.173C177.954,200.965 175.58,204.027 172.65,204.027M172.65,155.195C169.719,155.195 167.359,152.132 167.359,148.327C167.359,147.246 167.533,146.234 167.886,145.345C168.738,147.114 170.546,148.327 172.652,148.327C174.745,148.327 176.566,147.099 177.418,145.316C177.77,146.234 177.957,147.246 177.957,148.327C177.957,152.133 175.582,155.195 172.652,155.195M172.652,106.365C169.722,106.365 167.361,103.288 167.361,99.482C167.361,98.401 167.536,97.403 167.89,96.5C168.741,98.269 170.548,99.482 172.655,99.482C174.748,99.482 176.569,98.254 177.421,96.486C177.772,97.389 177.959,98.401 177.959,99.482C177.959,103.288 175.586,106.365 172.655,106.365M186.326,228.456C183.383,228.456 181.022,225.393 181.022,221.601C181.022,220.52 181.21,219.495 181.546,218.591C182.411,220.36 184.22,221.573 186.323,221.573C188.415,221.573 190.237,220.345 191.074,218.577C191.425,219.48 191.613,220.519 191.613,221.6C191.613,225.392 189.239,228.455 186.323,228.455M186.324,179.625C183.38,179.625 181.019,176.549 181.019,172.742C181.019,171.675 181.207,170.664 181.544,169.773C182.409,171.528 184.217,172.742 186.32,172.742C188.413,172.742 190.233,171.528 191.071,169.732C191.423,170.635 191.61,171.661 191.61,172.742C191.61,176.549 189.236,179.625 186.32,179.625M186.321,130.766C183.377,130.766 181.016,127.703 181.016,123.911C181.016,122.831 181.204,121.819 181.541,120.915C182.406,122.685 184.214,123.897 186.317,123.897C188.409,123.897 190.231,122.684 191.069,120.887C191.42,121.804 191.608,122.83 191.608,123.91C191.608,127.703 189.233,130.765 186.317,130.765M186.318,81.935C183.375,81.935 181.013,78.859 181.013,75.066C181.013,73.986 181.201,72.974 181.538,72.07C182.403,73.84 184.211,75.052 186.314,75.052C188.407,75.052 190.228,73.839 191.09,72.056C191.414,72.96 191.604,73.986 191.604,75.066C191.604,78.859 189.23,81.935 186.314,81.935M199.972,204.026C197.056,204.026 194.696,200.963 194.696,197.172C194.696,196.091 194.884,195.066 195.224,194.175C196.089,195.931 197.882,197.144 199.975,197.144C202.081,197.144 203.889,195.931 204.751,194.162C205.089,195.053 205.29,196.092 205.29,197.173C205.291,200.963 202.917,204.026 199.972,204.026M199.972,155.195C197.056,155.195 194.696,152.132 194.696,148.327C194.696,147.246 194.884,146.234 195.224,145.345C196.089,147.114 197.882,148.327 199.975,148.327C202.081,148.327 203.889,147.099 204.751,145.316C205.089,146.234 205.29,147.246 205.29,148.327C205.291,152.132 202.917,155.195 199.972,155.195M236.21,120.915C237.075,122.685 238.897,123.897 240.985,123.897C243.092,123.897 244.899,122.684 245.762,120.887C246.099,121.804 246.287,122.83 246.287,123.91C246.287,127.703 243.898,130.765 240.982,130.765C238.066,130.765 235.677,127.702 235.677,123.91C235.677,122.83 235.893,121.818 236.205,120.914M236.208,169.773C237.072,171.528 238.895,172.742 240.984,172.742C243.089,172.742 244.898,171.528 245.76,169.732C246.097,170.635 246.284,171.661 246.284,172.742C246.284,176.549 243.896,179.625 240.98,179.625C238.064,179.625 235.676,176.549 235.676,172.742C235.676,171.675 235.891,170.664 236.203,169.773M222.544,96.5C223.396,98.269 225.231,99.482 227.31,99.482C229.415,99.482 231.224,98.254 232.085,96.486C232.423,97.389 232.61,98.401 232.61,99.482C232.61,103.288 230.236,106.365 227.305,106.365C224.389,106.365 222.015,103.288 222.015,99.482C222.015,98.401 222.217,97.403 222.54,96.5M213.632,228.456C210.702,228.456 208.356,225.393 208.356,221.601C208.356,220.52 208.533,219.495 208.871,218.591C209.736,220.36 211.543,221.573 213.637,221.573C215.742,221.573 217.55,220.345 218.402,218.577C218.753,219.48 218.941,220.519 218.941,221.6C218.941,225.392 216.567,228.455 213.637,228.455M213.636,179.625C210.705,179.625 208.359,176.549 208.359,172.742C208.359,171.675 208.536,170.664 208.873,169.773C209.738,171.528 211.547,172.742 213.639,172.742C215.745,172.742 217.553,171.528 218.405,169.732C218.757,170.635 218.944,171.661 218.944,172.742C218.944,176.549 216.569,179.625 213.639,179.625M213.638,130.766C210.708,130.766 208.362,127.703 208.362,123.911C208.362,122.831 208.539,121.819 208.877,120.915C209.741,122.685 211.549,123.897 213.642,123.897C215.748,123.897 217.556,122.684 218.407,120.887C218.759,121.804 218.946,122.83 218.946,123.91C218.946,127.703 216.572,130.765 213.642,130.765M213.641,81.935C210.71,81.935 208.365,78.859 208.365,75.066C208.365,73.986 208.542,72.974 208.879,72.07C209.744,73.84 211.552,75.052 213.645,75.052C215.75,75.052 217.559,73.839 218.411,72.056C218.762,72.96 218.95,73.986 218.95,75.066C218.95,78.859 216.575,81.935 213.645,81.935M227.301,252.871C224.385,252.871 222.025,249.808 222.025,246.002C222.025,244.949 222.213,243.91 222.55,243.02C223.387,244.776 225.208,245.989 227.301,245.989C229.421,245.989 231.215,244.776 232.077,243.007C232.415,243.911 232.602,244.923 232.602,246.003C232.602,249.81 230.227,252.872 227.297,252.872M227.312,204.026C224.396,204.026 222.022,200.963 222.022,197.172C222.022,196.091 222.224,195.066 222.546,194.175C223.398,195.931 225.234,197.144 227.312,197.144C229.418,197.144 231.226,195.931 232.089,194.162C232.425,195.053 232.613,196.092 232.613,197.173C232.613,200.965 230.239,204.027 227.309,204.027M227.31,155.195C224.394,155.195 222.033,152.132 222.033,148.327C222.033,147.246 222.221,146.234 222.558,145.345C223.396,147.114 225.231,148.327 227.31,148.327C229.429,148.327 231.224,147.099 232.085,145.316C232.423,146.234 232.61,147.246 232.61,148.327C232.61,152.133 230.236,155.195 227.306,155.195M235.682,221.589C235.682,220.508 235.898,219.483 236.21,218.578C237.075,220.348 238.897,221.56 240.985,221.56C243.092,221.56 244.899,220.333 245.762,218.564C246.099,219.468 246.287,220.507 246.287,221.588C246.287,225.38 243.898,228.442 240.982,228.442C238.066,228.442 235.677,225.379 235.677,221.588M245.113,277.286C242.183,277.286 239.823,274.223 239.823,270.404C239.823,269.337 240,268.325 240.351,267.421C241.203,269.191 243.009,270.404 245.117,270.404C247.209,270.404 249.031,269.176 249.892,267.421C250.23,268.312 250.42,269.337 250.42,270.404C250.42,274.223 248.046,277.286 245.116,277.286M254.658,252.857C251.717,252.857 249.367,249.794 249.367,245.988C249.367,244.935 249.545,243.895 249.892,243.006C250.744,244.761 252.538,245.975 254.658,245.975C256.736,245.975 258.572,244.761 259.41,242.993C259.761,243.896 259.949,244.908 259.949,245.989C259.949,249.794 257.574,252.857 254.658,252.857M254.671,204.012C251.73,204.012 249.366,200.949 249.366,197.157C249.366,196.077 249.554,195.052 249.891,194.161C250.756,195.917 252.551,197.13 254.668,197.13C256.76,197.13 258.567,195.916 259.419,194.148C259.783,195.038 259.958,196.078 259.958,197.158C259.958,200.951 257.584,204.013 254.668,204.013M254.669,106.356C251.728,106.356 249.364,103.28 249.364,99.473C249.364,98.393 249.552,97.395 249.889,96.491C250.754,98.261 252.547,99.473 254.664,99.473C256.757,99.473 258.564,98.245 259.416,96.477C259.781,97.381 259.955,98.393 259.955,99.473C259.955,103.28 257.58,106.356 254.664,106.356M272.442,277.292C269.526,277.292 267.166,274.229 267.166,270.409C267.166,269.343 267.354,268.331 267.693,267.427C268.558,269.197 270.353,270.409 272.445,270.409C274.551,270.409 276.359,269.181 277.221,267.427C277.558,268.317 277.76,269.343 277.76,270.409C277.76,274.229 275.386,277.292 272.442,277.292" style="fill-rule:nonzero;"/>
        </g>
        <g transform="matrix(0.183938,0,0,0.183938,0,-0.000462549)">
            <path d="M291.99,88.547C291.99,88.547 291.91,92.77 291.896,92.985C291.855,95.697 291.667,98.29 291.343,100.786C314.044,119.073 354.373,151.466 356.531,153.086C357.828,154.045 378.315,169.875 400.006,150.534C399.182,149.888 334.277,98.343 291.984,64.653L291.984,88.544" style="fill-rule:nonzero;"/>
        </g>
        <g transform="matrix(0.183938,0,0,0.183938,0,-0.000462549)">
            <path d="M277.671,132.551C302.897,154.28 352.827,197.132 357.032,200.371C359.016,201.803 378.235,215.961 399.533,197.618C398.722,196.916 332.05,142.032 290.195,107.124C287.672,117.908 282.733,126.302 277.671,132.551" style="fill-rule:nonzero;"/>
        </g>
        <g transform="matrix(0.183938,0,0,0.183938,0,-0.000462549)">
            <path d="M266.643,143.304C269.1,152.914 271.569,162.68 274.012,172.592C300.411,196.656 344.126,236.554 345.879,238.105C347.175,239.251 366.717,256.812 389.27,238.16C388.405,237.417 315.728,172.54 274.683,135.963C271.743,139.148 268.893,141.577 266.64,143.305" style="fill-rule:nonzero;"/>
        </g>
        <g transform="matrix(0.183938,0,0,0.183938,0,-0.000462549)">
            <path d="M279.745,196.347C282.904,208.412 285.926,220.697 288.814,233.14C307.98,251.119 328.792,270.5 330.762,272.252C332.639,273.844 350.509,289.527 374.018,273.792C373.316,273.117 316.211,220.035 276.555,183.096C277.622,187.496 278.689,191.922 279.74,196.35" style="fill-rule:nonzero;"/>
        </g>
        <g transform="matrix(0.183938,0,0,0.183938,0,-0.000462549)">
            <path d="M150.108,330.766C150.108,336.581 154.818,341.305 160.636,341.305C166.454,341.305 171.19,336.581 171.19,330.766L171.19,287.118C163.484,293.865 156.195,299.955 150.108,304.947L150.108,330.766" style="fill-rule:nonzero;"/>
        </g>
        <g transform="matrix(0.183938,0,0,0.183938,0,-0.000462549)">
            <path d="M111.089,233.22C114.6,218.117 118.782,201.179 123.669,182.877C84.001,219.831 26.676,273.114 25.958,273.792C49.469,289.527 67.339,273.847 69.203,272.252C71.174,270.497 91.946,251.17 111.079,233.223" style="fill-rule:nonzero;"/>
        </g>
        <g transform="matrix(0.183938,0,0,0.183938,0,-0.000462549)">
            <path d="M54.122,238.113C55.891,236.56 100.252,196.057 126.625,172.062C129.082,163.059 131.741,153.747 134.533,144.172C132.051,142.35 128.742,139.65 125.314,135.965C84.269,172.568 11.598,237.419 10.728,238.163C33.308,256.815 52.836,239.255 54.133,238.108" style="fill-rule:nonzero;"/>
        </g>
        <g transform="matrix(0.183938,0,0,0.183938,0,-0.000462549)">
            <path d="M98.687,291.986C100.832,280.581 104.155,263.764 108.878,242.845C81.044,270.041 48.994,301.771 48.493,302.229C70.772,319.37 89.347,300.933 90.204,300.098C90.607,299.747 94.253,296.264 98.679,291.986" style="fill-rule:nonzero;"/>
        </g>
        <g transform="matrix(0.183938,0,0,0.183938,0,-0.000462549)">
            <path d="M202.626,329.91C202.626,335.766 207.35,340.491 213.192,340.491C219.022,340.491 223.774,335.766 223.774,329.91L223.774,282.67C216.769,276.435 209.522,269.726 202.626,262.923L202.626,329.926" style="fill-rule:nonzero;"/>
        </g>
        <g transform="matrix(0.183938,0,0,0.183938,0,-0.000462549)">
            <path d="M42.971,200.383C47.194,197.143 97.078,154.305 122.318,132.576C117.243,126.312 112.317,117.918 109.822,107.135C67.945,142.038 1.302,196.928 0.459,197.629C21.77,215.972 40.989,201.815 42.974,200.383" style="fill-rule:nonzero;"/>
        </g>
        <g transform="matrix(0.183938,0,0,0.183938,0,-0.000462549)">
            <path d="M0,150.546C21.704,169.886 42.164,154.056 43.474,153.097C45.633,151.477 85.975,119.099 108.663,100.797C108.339,98.315 108.148,95.708 108.109,92.997C108.109,92.781 108.002,88.558 108.002,88.558L108.002,64.667C65.745,98.357 0.827,149.899 0.008,150.548" style="fill-rule:nonzero;"/>
        </g>
        <g transform="matrix(0.183938,0,0,0.183938,0,-0.000462549)">
            <path d="M176.238,329.91C176.238,335.766 180.989,340.491 186.804,340.491C192.634,340.491 197.371,335.766 197.371,329.91L197.371,262.907C190.461,269.71 183.241,276.419 176.237,282.654L176.237,329.893" style="fill-rule:nonzero;"/>
        </g>
    </g>
</svg>
