<?xml version="1.0" encoding="UTF-8" standalone="no"?>
<!DOCTYPE svg PUBLIC "-//W3C//DTD SVG 1.1//EN" "http://www.w3.org/Graphics/SVG/1.1/DTD/svg11.dtd">
<svg width="100%" height="100%" viewBox="0 0 167 64" version="1.1" xmlns="http://www.w3.org/2000/svg"
     xml:space="preserve"
     style="fill-rule:evenodd;clip-rule:evenodd;stroke-linejoin:round;stroke-miterlimit:2;">
    <g transform="matrix(0.290909,0,0,0.290909,0,0)">
        <path d="M302.49,220C290.21,220 281.44,213.81 278.03,204.12L285.42,199.87C287.73,206.98 293.27,211.6 302.68,211.6C312.09,211.6 316.34,207.44 316.34,201.63C316.34,194.98 310.62,192.77 301.11,189.82C290.77,186.49 280.8,183.26 280.8,171.26C280.8,159.26 290.31,152.98 301.11,152.98C311.91,152.98 319.39,158.98 322.99,167.1L315.79,171.26C313.48,165.72 308.96,161.29 301.11,161.29C294.18,161.29 289.38,164.98 289.38,170.89C289.38,176.8 293.91,179.1 302.95,181.97C314.21,185.66 324.83,188.99 324.83,201.45C324.83,212.8 315.69,220 302.49,220M324.1,75.44L324.1,67.31L286.89,67.31L286.89,131.93L295.48,131.93L295.48,104.51L322.9,104.51L322.9,96.39L295.48,96.39L295.48,75.44L324.1,75.44ZM350.57,123.81L350.57,103.31L377.8,103.31L377.8,95.28L350.57,95.28L350.57,75.43L380.11,75.43L380.11,67.31L341.98,67.31L341.98,131.93L380.57,131.93L380.57,123.81L350.57,123.81ZM406.95,99.43L424.21,99.43C430.58,99.43 435.75,93.98 435.75,87.33C435.75,80.68 430.58,75.33 424.21,75.33L406.95,75.33L406.95,99.43ZM422.18,107.18L406.95,107.18L406.95,131.92L398.36,131.92L398.36,67.3L424.21,67.3C435.29,67.3 444.34,76.25 444.34,87.33C444.34,95.82 438.71,103.3 430.95,106.07L446.18,131.92L436.67,131.92L422.18,107.18ZM502.37,67.3L502.37,115.49L469.14,67.3L462.21,67.3L462.21,131.92L470.8,131.92L470.8,83.64L504.03,131.92L510.96,131.92L510.96,67.3L502.37,67.3ZM341.98,154.17L341.98,218.79L380.57,218.79L380.57,210.67L350.57,210.67L350.57,190.18L377.8,190.18L377.8,182.15L350.57,182.15L350.57,162.3L380.11,162.3L380.11,154.18L341.98,154.18L341.98,154.17ZM438.33,154.17L438.33,181.59L406.94,181.59L406.94,154.17L398.35,154.17L398.35,218.79L406.94,218.79L406.94,189.71L438.33,189.71L438.33,218.79L446.82,218.79L446.82,154.17L438.33,154.17ZM468.12,154.17L468.12,218.79L506.71,218.79L506.71,210.67L476.71,210.67L476.71,190.18L503.95,190.18L503.95,182.15L476.71,182.15L476.71,162.3L506.25,162.3L506.25,154.18L468.12,154.18L468.12,154.17ZM564.65,154.17L564.65,202.36L531.42,154.17L524.5,154.17L524.5,218.79L533.08,218.79L533.08,170.51L566.31,218.79L573.24,218.79L573.24,154.17L564.65,154.17ZM138.22,127.12C138.22,109.96 137.15,95.34 124.78,82.97C115.51,73.7 101.29,67.43 79.84,67.43C69.25,67.43 56.78,69.01 46.67,70.7L46.67,0L0,2.95L0,218.75L46.66,218.75L46.66,110.38C56.55,108.76 64.5,107.9 71.3,107.9C80.34,107.9 85.64,109.29 88.39,112.03C91.58,115.21 91.63,120.23 91.63,131.36L91.63,218.74L138.2,218.74L138.2,127.11L138.22,127.12ZM205.69,127.71C205.69,120.29 206.36,116.78 208.93,114.21C212.58,110.56 220.72,108.09 256.41,107.12L256.41,67.53C208.06,68.03 186.07,73.37 172.2,87.23C159.64,99.79 159.02,113.98 159.02,129.79L159.02,218.78L205.68,218.78L205.68,127.7L205.69,127.71Z" style="fill:rgb(0,115,150);fill-rule:nonzero;"/>
    </g>
</svg>
