<?xml version="1.0" encoding="UTF-8" standalone="no"?>
<!DOCTYPE svg PUBLIC "-//W3C//DTD SVG 1.1//EN" "http://www.w3.org/Graphics/SVG/1.1/DTD/svg11.dtd">
<svg width="100%" height="100%" viewBox="0 0 131 64" version="1.1" xmlns="http://www.w3.org/2000/svg"
     xml:space="preserve"
     style="fill-rule:evenodd;clip-rule:evenodd;stroke-linejoin:round;stroke-miterlimit:2;">
    <g transform="matrix(1,0,0,1,0.00355924,0)">
        <g id="path473" transform="matrix(0.211417,0,0,0.211417,-0.00280676,0)">
            <path d="M442.59,229.172C441.933,229.161 441.451,229.935 441.467,230.544L441.467,248.19C441.467,249.229 441.34,249.887 441.124,250.279C439.023,249.114 435.58,246.093 431.21,246.101L426.159,246.101C420.781,246.09 416.619,250.408 416.619,255.454L416.619,293.054C416.619,298.183 420.781,302.719 426.159,302.719L431.21,302.719C435.534,302.719 436.679,301.606 438.88,299.601C439.526,298.993 440.143,298.599 440.719,298.354C441.175,298.694 441.462,299.337 441.467,300.287C441.467,300.993 441.917,301.69 442.59,301.69L451.475,301.69C452.147,301.69 453.003,300.978 453.003,300.287L453.003,230.544C453.003,229.935 452.147,229.158 451.475,229.172L442.59,229.172ZM166.922,230.201C166.357,230.201 165.593,230.566 165.394,231.604L151.271,298.635C151.221,298.951 151.325,299.213 151.521,299.383L151.271,300.63C151.161,301.321 151.829,301.677 152.393,301.69L162.807,301.69C163.387,301.69 164.136,301.338 164.334,300.287L166.236,289.593C166.617,287.768 168.138,286.133 170.445,286.133L180.297,286.133C182.803,286.133 183.718,288.031 184.101,289.593L186.408,299.944C186.699,301.244 187.18,301.69 187.561,301.69L197.943,301.69C198.615,301.701 199.296,301.238 199.097,300.63L198.816,299.414C199.058,299.229 199.2,298.948 199.097,298.635L183.82,231.947C183.53,230.813 183.139,230.201 182.666,230.201L166.922,230.201ZM205.114,230.201C204.35,230.201 203.992,230.654 203.992,231.261L203.992,300.63C203.992,301.321 204.443,301.69 205.114,301.69L214.748,301.69C215.42,301.679 215.901,301.155 215.901,300.63L215.901,275.065C215.901,273.074 217.429,271.261 219.736,271.261L221.918,271.261C223.553,271.261 224.485,272.64 224.974,274.036L234.919,300.287C235.393,301.587 235.691,301.704 236.073,301.69L246.455,301.69C247.127,301.679 247.417,301.267 247.234,301.004L246.735,299.632C247.191,299.525 247.388,299.23 247.234,299.009L236.135,269.266C236.128,269.253 236.111,269.247 236.104,269.235C236.293,268.954 236.568,268.681 236.914,268.486C242.293,265.348 245.706,260.258 245.706,253.303L245.706,247.847C245.694,237.325 237.245,230.201 226.595,230.201L205.114,230.201L205.114,230.201ZM254.405,230.201C253.641,230.201 252.877,230.83 252.877,231.604L252.877,300.287C252.877,301.061 253.733,301.69 254.405,301.69L275.512,301.69C286.544,301.69 295.746,293.44 295.746,283.015L295.746,249.219C295.746,238.794 286.544,230.201 275.512,230.201L254.405,230.201ZM484.492,230.201C483.728,230.201 482.979,230.75 482.964,231.261L482.964,239.46C482.976,239.972 483.621,240.49 484.492,240.489L505.131,240.489C505.683,240.489 507.142,240.963 507.781,241.923C507.776,241.932 507.786,241.945 507.781,241.955L481.436,291.402C481.237,291.844 481.062,292.242 481.062,293.459L481.062,298.635C481.06,298.721 481.046,298.808 481.062,298.884L481.062,300.63C481.05,301.321 481.604,301.691 482.184,301.69L521.249,301.69C521.938,301.69 522.403,301.224 522.403,300.63L522.403,291.744C522.403,291.302 522.105,290.684 521.249,290.684L497.96,290.684C497.135,290.684 496.139,290.294 495.653,289.593L521.998,240.489C522.472,239.618 522.403,239.043 522.403,238.089L522.403,231.261C522.415,230.736 521.639,230.201 520.875,230.201L484.492,230.201L484.492,230.201ZM530.727,230.201C529.949,230.201 529.199,230.83 529.199,231.604L529.199,300.287C529.199,301.061 530.071,301.69 530.727,301.69L551.803,301.69C562.835,301.69 571.663,293.44 571.663,283.015L571.663,249.219C571.663,238.794 562.835,230.201 551.803,230.201L530.727,230.201ZM581.14,230.201C580.377,230.201 579.613,230.996 579.613,231.604L579.613,300.287C579.613,300.978 580.377,301.69 581.14,301.69L590.774,301.69C591.447,301.69 592.302,301.061 592.302,300.287L592.302,273.35C592.302,271.359 593.997,269.546 596.105,269.546L610.26,269.546C611.024,269.546 611.772,268.835 611.788,268.143L611.788,260.287C611.788,259.678 610.932,258.884 610.26,258.884L596.511,258.884C594.494,258.884 592.302,257.365 592.302,255.111L592.302,244.979C592.314,242.808 594.586,241.206 596.511,241.206L614.843,241.206C615.607,241.206 615.996,240.509 615.996,239.803L615.996,231.604C615.996,230.913 615.607,230.201 614.843,230.201L581.14,230.201ZM219.331,240.832L224.974,240.832C229.97,240.832 234.171,244.373 234.171,249.157L234.171,253.023C234.171,257.793 229.97,261.315 224.974,261.316L219.736,261.316C217.918,261.316 215.901,259.6 215.901,257.512L215.901,244.636C215.901,242.797 217.13,240.819 219.331,240.832ZM269.775,240.832L270.835,240.832C277.375,240.843 282.682,245.994 282.682,252.243L282.682,279.991C282.682,286.171 277.375,291.059 270.835,291.059L269.775,291.059C267.667,291.059 265.566,289.343 265.566,287.255L265.566,244.636C265.566,242.548 267.666,240.832 269.775,240.832ZM546.066,240.832L547.126,240.832C553.651,240.832 558.973,245.98 558.974,252.243L558.974,279.991C558.974,286.157 553.651,291.058 547.126,291.059L546.066,291.059C543.958,291.059 541.873,289.343 541.889,287.255L541.889,244.636C541.889,242.548 543.958,240.832 546.066,240.832ZM56.96,245.758C49.091,245.758 42.432,251.514 42.432,258.884L42.432,289.25C42.432,296.73 49.091,302.719 56.96,302.719L63.134,302.719C71.003,302.719 77.288,296.717 77.288,289.25L77.288,259.258C77.288,251.875 71.003,245.758 63.134,245.758L56.96,245.758ZM109.681,245.758C104.678,245.751 99.919,249.827 97.179,251.027C96.915,250.696 96.774,250.123 96.774,249.219L96.774,247.847C96.774,247.141 95.918,246.773 95.246,246.787L86.36,246.787C85.688,246.787 85.207,247.143 85.207,247.847L85.207,300.287C85.207,300.978 85.689,301.69 86.36,301.69L95.246,301.69C95.918,301.69 96.774,300.978 96.774,300.287L96.774,262.282C96.774,259.323 100.844,256.575 104.007,255.704C104.494,255.564 105.014,255.486 105.503,255.423C107.824,255.766 109.681,257.418 109.681,261.253L109.681,300.287C109.681,300.993 110.536,301.69 111.209,301.69L120.063,301.69C120.735,301.69 121.216,300.978 121.216,300.287L121.216,254.737C121.216,249.359 117.253,245.758 111.676,245.758C111.349,245.758 111.003,245.788 110.679,245.821C110.343,245.793 110.029,245.758 109.681,245.758ZM395.232,245.758C390.183,245.758 385.258,249.925 382.418,251.09C382.115,250.767 381.95,250.167 381.95,249.219L381.95,247.847C381.95,247.156 381.469,246.786 380.797,246.787L371.942,246.787C371.27,246.787 370.415,247.156 370.415,247.847L370.415,300.287C370.415,300.978 371.27,301.69 371.942,301.69L380.797,301.69C381.469,301.69 381.95,300.978 381.95,300.287L381.95,262.282C381.95,259.337 386.052,256.575 389.214,255.704C389.71,255.563 390.212,255.485 390.711,255.423C393.021,255.779 394.868,257.443 394.858,261.253L395.232,300.287C395.219,300.978 395.714,301.69 396.385,301.69L405.239,301.69C405.912,301.69 406.393,300.978 406.393,300.287L406.393,254.737C406.393,249.359 402.789,245.758 397.227,245.758C396.903,245.758 396.583,245.788 396.26,245.821C395.929,245.793 395.579,245.758 395.232,245.758ZM174.404,246.413C174.982,246.9 175.465,247.853 175.714,249.157L180.235,272.228L180.235,272.259C179.831,273.713 178.518,274.774 176.867,274.784L171.91,274.784C170.349,274.605 169.316,273.494 168.98,272.228L173.126,249.157C173.345,247.857 173.82,246.901 174.404,246.413L174.404,246.413ZM1.559,246.787C0.505,246.787 -0.167,247.237 0.031,248.19L0.281,249.188C0.053,249.414 -0.06,249.748 0.031,250.185L12.253,300.63C12.452,301.155 13.208,301.691 13.406,301.69L23.788,301.69C23.987,301.69 24.476,301.238 24.568,300.63L37.942,250.185C38.048,249.637 37.982,249.251 37.724,249.032L37.942,248.19C38.126,247.237 37.849,246.787 36.789,246.787L28.683,246.787C28.302,246.787 27.621,247.158 27.529,247.504L19.891,279.648C19.605,280.819 19.257,281.567 18.862,282.017C18.353,281.5 17.906,280.65 17.677,279.648L11.193,247.504C11.107,247.159 10.42,246.787 10.039,246.787L1.559,246.787ZM326.081,246.787C325.409,246.787 324.957,247.24 324.959,247.847L324.959,294.083C324.971,298.258 328.945,302.719 332.597,302.719L338.022,302.719C341.905,302.719 343.722,298.265 346.564,297.356C347.9,297.795 348.445,299.087 348.996,300.287C349.47,301.504 349.851,301.69 350.524,301.69L359.035,301.69C359.815,301.69 360.563,300.895 360.563,300.287L360.563,247.847C360.563,247.239 359.799,246.786 359.035,246.787L350.524,246.787C349.867,246.787 349.011,247.24 348.996,247.847L348.996,284.823C349.007,288.385 345.125,291.189 341.888,291.651C338.164,291.184 336.12,288.35 336.12,285.166L336.12,247.847C336.12,247.239 335.623,246.786 334.966,246.787L326.081,246.787ZM60.078,255.361L60.39,255.361C63.843,255.361 66.501,258.375 66.501,261.596L66.501,286.881C66.501,290.088 63.95,293.116 60.39,293.116L60.078,293.116C56.625,293.116 53.593,290.185 53.593,286.881L53.593,261.596C53.593,258.292 56.625,255.361 60.078,255.361ZM433.891,256.39L435.325,256.39C438.687,256.39 441.467,260.377 441.467,261.939L441.467,286.881C441.467,288.18 438.794,292.43 435.325,292.43L433.891,292.43C430.637,292.43 427.78,289.922 427.78,286.881L427.78,261.939C427.78,258.814 430.728,256.39 433.891,256.39Z" style="fill:rgb(1,91,99);fill-rule:nonzero;"/>
        </g>
        <g id="path3033" transform="matrix(0.211417,0,0,0.211417,-0.00280676,0)">
            <path d="M21,0C8.648,0 0,12.089 0,22L0,192C0,206.056 10.002,215 23,215L80,215L80,171L126,211C129.354,213.897 132.421,215 138,215L164.813,215C172.824,215 179.523,211.439 183.625,206.25C187.531,211.466 193.797,215 202,215L220,215C224.358,215 229.42,212.73 234,209L250,195.969L250,215L307,215C321.335,215 330,204.271 330,192L330,171L374,209C377.899,212.367 381.892,215 388,215L414.813,215C422.529,215 428.992,211.471 433.125,206.156C436.933,211.512 443.453,215 453,215L508,215L508,152L537,152L537,215L593,215C607.112,215 616,206.111 616,192L616,22C616,9.726 607.541,0 594,0L489,0L438,40.656L438,22C438,11.45 428.603,0 416,0L388,0C381.672,0 378.562,2.06 374,6L330,44L330,22C330,11.432 320.413,0 308,0L201,0C193.506,0 187.298,3.3 183.406,8.469C179.414,3.313 173.157,0 166,0L138,0C133.259,0 129.123,1.285 126,4L80,44L80,0L21,0ZM508,60L537,60L537,87L508,87L508,60ZM429,63.25L429,151.563L374,107.5L429,63.25ZM179,63.344L179,151.469L125,107.5L179,63.344Z" style="fill:rgb(1,91,99);fill-rule:nonzero;"/>
        </g>
        <g id="path2995" transform="matrix(0.211417,0,0,0.211417,-0.00280676,0)">
            <path d="M21,8C14.446,8 8,14.89 8,22L8,192C8,201.824 13.176,207 23,207L72,207L72,153L132,205C133.503,206.31 135.595,207 138,207L164.813,207C173.779,207 180,201.948 180,192L180,162.781L111,107.5L180,52L180,22C180,12.772 173.842,8 166,8L138,8C135.11,8 133.606,8.608 132,10L72,62L72,8L21,8ZM201,8C192.874,8 187,13.694 187,22L187,52L251,52L251,8L201,8ZM258,8L258,207L307,207C317.367,207 322,200.568 322,192L322,153L382,205C383.503,206.31 385.595,207 388,207L414.813,207C423.779,207 430,201.948 430,192L430,162.781L361,107.5L430,52L430,22C430,13.037 423.049,8 416,8L388,8C385.11,8 383.606,8.608 382,10L322,62L322,22C322,14.341 317.245,8 308,8L258,8ZM491,8L437,51.844L437,192C437,200.845 442.795,207 453,207L500,207L500,144L545,144L545,207L593,207C603.118,207 608,201.292 608,192L608,22C608,14.222 601.724,8 594,8L491,8ZM500,52L545,52L545,95L500,95L500,52ZM187,60L187,192C187,200.79 191.172,207 202,207L220,207C222.242,207 224.281,206.376 226,205L251,185L251,74C251,65.694 245.126,60 237,60L187,60Z" style="fill:rgb(255,235,27);fill-rule:nonzero;"/>
        </g>
    </g>
</svg>
