<?xml version="1.0" encoding="UTF-8" standalone="no"?>
<!DOCTYPE svg PUBLIC "-//W3C//DTD SVG 1.1//EN" "http://www.w3.org/Graphics/SVG/1.1/DTD/svg11.dtd">
<svg width="100%" height="100%" viewBox="0 0 4 2" version="1.1" xmlns="http://www.w3.org/2000/svg" xml:space="preserve"
     xmlns:serif="http://www.serif.com/"
     style="fill-rule:evenodd;clip-rule:evenodd;stroke-linejoin:round;stroke-miterlimit:2;">
    <g transform="matrix(1,0,0,1,-3713.63,-7948.62)">
        <g id="g10" transform="matrix(0.0760194,0,0,-0.0760194,3694.85,8005.27)">
            <g id="strategieplan-106">
                <g id="g101" serif:id="g10">
                    <g id="g12">
                        <g id="g18" transform="matrix(1,0,0,1,260.976,736.185)">
                            <path id="path20" d="M0,0C0.509,0.589 2.164,2.225 4.961,2.225C6.509,2.225 7.792,1.463 8.489,0.223C8.851,-0.423 9.055,-1.164 9.055,-2.207L9.055,-4.827L6.351,-4.827L6.351,-2.361C6.351,-1.816 6.298,-1.515 6.197,-1.246C5.937,-0.552 5.356,-0.253 4.536,-0.253C3.297,-0.253 2.248,-1.126 1.375,-1.943C0.497,-2.764 -0.759,-4.069 -1.38,-4.772C-1.443,-4.844 -1.518,-4.872 -1.599,-4.847C-1.677,-4.821 -1.704,-4.761 -1.704,-4.641L-1.704,-2.234C-1.704,-0.886 -2.42,-0.253 -3.578,-0.253C-4.96,-0.253 -6.093,-1.341 -7.447,-2.667C-8.504,-3.702 -9.473,-4.739 -10.834,-6.165C-10.9,-6.235 -10.972,-6.265 -11.054,-6.239C-11.132,-6.214 -11.159,-6.154 -11.159,-6.034L-11.159,-0.929C-11.159,-0.393 -11.418,-0.031 -12.057,-0.031L-13.864,-0.031L-13.864,2.001L-9.593,2.001C-8.876,2.001 -8.454,1.594 -8.454,0.868L-8.454,-0.303C-8.454,-0.303 -6.062,2.225 -3.427,2.225C-1.189,2.225 -0.297,0.873 0,0M17.629,2.225C13.171,2.225 11.092,-1.623 11.092,-4.068C11.092,-5.85 11.558,-6.885 12.046,-7.681L15.068,-7.681C14.525,-6.88 13.803,-5.709 13.803,-4.068C13.803,-2.078 15.394,-0.253 17.617,-0.253C19.318,-0.253 20.533,-1.379 21.233,-1.931C22.252,-2.735 23.874,-4.066 24.633,-4.747C24.704,-4.812 24.77,-4.849 24.852,-4.822C24.93,-4.798 24.957,-4.736 24.957,-4.618L24.957,7.888C24.957,8.614 24.535,9.021 23.819,9.021L19.548,9.021L19.548,6.988L21.291,6.988C21.93,6.988 22.189,6.627 22.189,6.09L22.189,0.321C20.651,1.877 18.953,2.225 17.629,2.225M32.166,-0.303L32.166,0.868C32.166,1.594 31.744,2.001 31.028,2.001L26.757,2.001L26.757,-0.031L28.563,-0.031C29.203,-0.031 29.462,-0.393 29.462,-0.929L29.462,-6.052C29.462,-6.171 29.489,-6.232 29.566,-6.258C29.648,-6.283 29.72,-6.252 29.787,-6.182C30.391,-5.548 31.807,-4.031 32.727,-3.136C34.813,-1.108 36.468,-0.253 37.914,-0.253L37.914,2.225C36.08,2.225 35.455,1.955 34.371,1.379C33.575,0.956 32.663,0.197 32.166,-0.303" style="fill:rgb(0,99,175);fill-rule:nonzero;"/>
                        </g>
                    </g>
                </g>
            </g>
        </g>
    </g>
</svg>
