<?xml version="1.0" encoding="UTF-8" standalone="no"?>
<!DOCTYPE svg PUBLIC "-//W3C//DTD SVG 1.1//EN" "http://www.w3.org/Graphics/SVG/1.1/DTD/svg11.dtd">
<svg width="100%" height="100%" viewBox="0 0 67 64" version="1.1" xmlns="http://www.w3.org/2000/svg"
     xml:space="preserve"
     style="fill-rule:evenodd;clip-rule:evenodd;stroke-linejoin:round;stroke-miterlimit:2;">
    <g transform="matrix(1,0,0,1,-4.46051,-433.834)">
        <g id="g2061" transform="matrix(4.94563,0,0,-4.94563,-282.855,3958.7)">
            <g id="path2049" transform="matrix(0.129096,0,0,0.129096,50.595,609.444)">
                <rect x="90.747" y="760.201" width="5.013" height="39.823" style="fill:rgb(34,55,126);fill-rule:nonzero;"/>
            </g>
            <g id="path2051" transform="matrix(0.129096,0,0,0.129096,50.595,609.444)">
                <rect x="90.747" y="699.783" width="5.013" height="18.085" style="fill:rgb(34,55,126);fill-rule:nonzero;"/>
            </g>
            <g id="path2053" transform="matrix(0.129096,0,0,0.129096,50.595,609.444)">
                <path d="M81.768,760.201L90.747,760.201L90.747,717.867L80.778,717.867L67.074,742.55L67.074,717.867L58.095,717.867L58.095,760.203L67.463,760.202L81.768,733.833L81.768,760.201Z" style="fill:rgb(34,55,126);fill-rule:nonzero;"/>
            </g>
            <g id="path2055" transform="matrix(0.129096,0,0,0.129096,50.595,609.444)">
                <path d="M110.739,760.206C120.915,760.206 125.879,755.511 126.551,745.453L126.551,732.713C125.781,721.943 120.915,717.87 110.739,717.87L95.759,717.87L95.759,760.201L110.739,760.206ZM109.857,752.192L105.365,752.195L105.365,725.846L109.857,725.846C114.308,725.846 117.435,727.707 117.435,733.622L117.435,744.51C117.435,750.126 114.593,752.191 109.857,752.191" style="fill:rgb(34,55,126);"/>
            </g>
            <g id="path2057" transform="matrix(0.129096,0,0,0.129096,50.595,609.444)">
                <path d="M146.046,752.703L140.086,752.705L140.086,741.766L146.046,741.766C149.681,741.766 152.048,743.825 152.048,747.502C152.048,751.181 150.371,752.703 146.046,752.703M145.362,734.133L152.915,717.868L163.029,717.868L154.057,735.815C159.123,737.822 161.13,741.903 161.027,747.388C160.87,755.732 156.704,760.2 145.662,760.2L130.909,760.2L130.909,717.868L140.268,717.868L140.268,734.102L145.362,734.133Z" style="fill:rgb(34,55,126);"/>
            </g>
        </g>
    </g>
</svg>
