<?xml version="1.0" encoding="UTF-8" standalone="no"?>
<!DOCTYPE svg PUBLIC "-//W3C//DTD SVG 1.1//EN" "http://www.w3.org/Graphics/SVG/1.1/DTD/svg11.dtd">
<svg width="100%" height="100%" viewBox="0 0 192 64" version="1.1" xmlns="http://www.w3.org/2000/svg"
     xml:space="preserve"
     style="fill-rule:evenodd;clip-rule:evenodd;stroke-linejoin:round;stroke-miterlimit:2;">
    <g transform="matrix(0.544218,0,0,0.544218,0,0)">
        <path d="M12.9,19.8L12.9,25.5C15,23.4 17.7,21.6 20.4,20.4C23.1,19.2 26.1,18.6 29.1,18.6C35.7,18.6 42,21.3 46.2,26.1C51,31.5 53.4,38.4 53.1,45.6C53.4,52.8 50.7,59.7 45.9,64.8C41.4,69.6 35.1,72.6 28.5,72.6C25.8,72.6 22.8,72 20.1,71.1C17.4,69.9 14.7,68.1 12.6,66L12.6,90.3L0,90.3L0,19.8L12.9,19.8ZM26.4,30.6C22.5,30.6 18.9,32.1 16.5,34.8C13.8,37.8 12.3,41.7 12.6,45.6C12.3,49.8 13.8,53.7 16.5,56.7C19.2,59.4 22.8,61.2 26.4,60.9C30.3,60.9 33.9,59.4 36.3,56.7C39,53.7 40.5,49.8 40.2,45.6C40.5,41.7 39,37.8 36.3,34.8C33.9,32.1 30.3,30.3 26.4,30.6M59.4,71.4L72,71.4L72,50.7C72,47.1 72,43.5 72.6,40.2C73.2,37.5 74.4,35.1 76.5,33.3C78.3,31.5 80.7,30.6 83.1,30.6C84.9,30.6 86.7,31.2 88.2,32.1C89.7,33.3 90.6,34.8 91.2,36.9C91.8,40.8 92.1,45 92.1,48.9L92.1,71.4L105,71.4L105,37.5C105.3,32.7 103.8,27.6 100.5,24C97.2,20.4 92.4,18.6 87.6,18.6C84.9,18.6 82.2,19.2 79.8,20.1C77.1,21.3 74.4,23.1 72.3,24.9L72.3,0L59.4,0L59.4,71.4ZM136.8,18.6C141.6,18.6 146.4,19.8 150.6,22.2C154.8,24.6 158.1,27.9 160.5,32.1C162.9,36.3 164.1,40.8 164.1,45.6C164.1,50.4 162.9,55.2 160.5,59.4C158.1,63.6 154.8,66.9 150.6,69.3C146.4,71.7 141.6,72.9 136.8,72.9C129.6,72.9 122.7,70.2 117.9,65.1C112.8,60 109.8,53.1 110.1,45.9C109.8,38.1 113.1,30.9 119.1,25.8C123.6,21 130.2,18.6 136.8,18.6M137.1,30.6C133.2,30.6 129.6,32.1 127.2,34.8C124.5,37.8 123,41.7 123.3,45.6C123,49.5 124.5,53.4 127.2,56.4C129.9,59.1 133.5,60.6 137.1,60.6C141,60.6 144.6,59.1 147.3,56.4C150,53.4 151.5,49.5 151.2,45.6C151.5,41.7 150,37.8 147.3,34.8C144.6,32.1 140.7,30.6 137.1,30.6M222.3,49.5L180.9,49.5C181.2,52.8 183,56.1 185.7,58.2C188.4,60.6 192,61.5 195.6,61.5C200.4,61.5 204.9,59.7 208.2,56.4L219,61.5C216.6,65.1 213.3,68.1 209.1,69.9C204.9,71.7 200.4,72.9 195.6,72.6C188.1,72.9 181.2,70.2 175.8,65.1C170.7,60 168,53.1 168.3,45.9C168,38.7 170.7,31.5 175.8,26.4C180.9,21.3 187.8,18.3 195,18.6C202.5,18.3 209.7,21 214.8,26.4C219.9,31.8 222.9,39.3 222.3,47.1L222.3,49.5ZM209.4,39.3C208.5,36.3 206.7,33.9 204.3,32.4C201.6,30.6 198.6,29.7 195.6,29.7C192.3,29.7 188.7,30.6 186,32.7C183.9,34.5 182.4,36.9 181.2,39.3L209.4,39.3ZM228,71.4L240.9,71.4L240.9,50.7C240.9,47.1 240.9,43.8 241.5,40.2C242.1,37.5 243.3,34.8 245.4,33C247.2,31.2 249.6,30.3 252,30.6C253.8,30.6 255.6,31.2 257.1,32.1C258.6,33.3 259.5,35.1 260.1,36.9C260.7,40.8 261,45 261,49.2L261,71.7L273.9,71.7L273.9,37.5C274.2,32.7 272.7,27.9 269.4,24C266.1,20.4 261.3,18.6 256.5,18.6C254.1,18.6 251.4,19.2 249.3,20.1C246.3,21.3 243.6,23.1 241.2,25.2L241.2,19.8L228,19.8L228,71.4ZM280.5,71.4L293.4,71.4L293.4,19.8L280.5,19.8L280.5,71.4ZM316.2,44.4L296.7,71.4L311.4,71.4L323.7,54.6L336,71.4L351,71.4L331.2,44.1L348.6,19.8L333.9,19.8L323.7,33.9L313.5,19.8L298.5,19.8L316.2,44.4ZM59.4,116.7L59.4,90.3L68.1,90.3C71.4,90.3 75,91.5 77.4,93.6C82.8,98.4 83.4,106.8 78.6,112.2L77.4,113.4C74.7,115.5 71.4,116.7 68.1,116.7L59.4,116.7ZM62.1,92.7L62.1,114L67.2,114C70.5,114.3 73.8,113.1 76.2,110.7C80.1,106.5 80.1,100.2 76.2,96C73.8,93.6 70.5,92.4 67.2,92.7L62.1,92.7ZM88.5,109.8L85.5,116.7L82.5,116.7L93.9,90.3L96.6,90.3L108,116.7L105,116.7L102,109.8L88.5,109.8ZM95.1,93.3L89.4,107.1L100.8,107.1L95.1,93.3ZM126.6,92.7L124.2,94.5C123,92.7 121.2,91.8 119.1,91.8C117.6,91.8 116.4,92.1 115.2,93C114,93.9 113.4,95.1 113.4,96.6C113.4,98.7 114.9,100.5 117,101.1L123.6,103.5C125.7,104.7 127.2,107.1 127.2,109.5C127.2,111.6 126.3,113.7 124.5,115.2C122.7,116.4 120.6,117.3 118.5,117.3C115.2,117.6 112.2,116.1 110.1,113.4L112.5,111.6C113.7,113.7 116.1,115.2 118.5,114.9C120,114.9 121.2,114.6 122.4,113.7C123.6,112.8 124.2,111.6 124.2,110.1C124.2,108 122.7,106.2 120.6,105.6C118.5,104.7 116.4,104.1 114,103.2C111.9,102 110.4,99.6 110.4,97.2C110.4,95.1 111.3,92.7 113.1,91.5C117.3,88.5 123,89.1 126.6,92.7ZM164.1,93.3L162,95.4C159.9,93.3 157.2,92.1 154.5,92.4C151.5,92.4 148.5,93.6 146.4,95.7C142.5,100.2 142.5,107.1 146.4,111.6C148.5,114 151.2,115.2 154.2,115.2C156.9,115.2 159.3,114.6 161.4,113.1L161.4,104.4L155.1,104.4L155.1,102L164.1,102L164.1,114.9C161.1,116.7 157.5,117.6 154.2,117.6C150.6,117.6 147,116.4 144.3,113.7C139.2,108 139.2,99.6 144.3,93.9C147,91.2 150.3,90 154.2,90C158.1,89.4 161.7,90.6 164.1,93.3ZM173.7,109.8L171,116.7L168,116.7L179.4,90.3L182.1,90.3L193.5,116.7L190.2,116.7L187.2,109.8L173.7,109.8ZM180.3,93.3L174.6,107.1L186,107.1L180.3,93.3ZM200.1,90.3L215.7,112.5L215.7,90.3L218.4,90.3L218.4,116.7L215.1,116.7L199.5,94.2L199.5,116.7L196.8,116.7L196.8,90.3L200.1,90.3ZM241.2,90.3L241.2,92.4L225.9,114L241.5,114L241.5,116.4L222.6,116.4L222.6,114L237.9,92.4L222.6,92.4L222.6,90L241.2,90.3ZM247.8,104.1L247.8,114L261.9,114L261.9,116.4L245.1,116.4L245.1,90.3L261.6,90.3L261.6,92.7L247.8,92.7L247.8,101.7L260.7,101.7L260.7,104.1L247.8,104.1ZM277.5,116.7L277.5,90.3L285.3,90.3C287.4,90.3 289.5,90.6 291.3,91.8C293.1,93 294,94.8 294,96.9C294,98.1 293.7,99.6 292.8,100.5C291.9,101.7 290.7,102.3 289.5,102.6C291.3,102.6 292.8,103.5 294,104.7C295.2,105.9 295.8,107.7 295.5,109.5C295.5,111 294.9,112.5 294,113.7C291.9,115.8 288.9,117 285.9,116.7L277.5,116.7ZM280.2,92.7L280.2,101.7L285.6,101.7C286.8,101.7 288.3,101.4 289.2,100.8C290.4,99.9 291,98.7 291,97.2C291,96.3 290.7,95.4 290.1,94.5C288.9,93.3 287.1,92.4 285.3,92.7L280.2,92.7ZM280.2,104.1L280.2,114.3L285.3,114.3C287.1,114.3 288.6,114 290.1,113.1C291.3,112.2 292.2,110.7 292.2,109.2C292.2,105.9 290.1,104.1 285.6,104.1L280.2,104.1ZM303.3,90.3L303.3,116.7L300.6,116.7L300.6,90.3L303.3,90.3ZM312.6,90.3L312.6,114.3L324.9,114.3L324.9,116.7L309.9,116.7L309.9,90.6L312.6,90.6L312.6,90.3ZM328.2,116.7L328.2,90.3L336.9,90.3C340.2,90.3 343.8,91.5 346.2,93.6C351.6,98.4 352.2,106.5 347.4,112.2L346.2,113.4C343.5,115.5 340.2,116.7 336.9,116.7L328.2,116.7ZM330.9,92.7L330.9,114L336,114C339.3,114.3 342.6,113.1 345,110.7C348.9,106.5 348.9,100.2 345,96C342.6,93.6 339.3,92.4 336,92.7L330.9,92.7Z" style="fill:rgb(0,104,124);fill-rule:nonzero;"/>
    </g>
</svg>
