<?xml version="1.0" encoding="UTF-8" standalone="no"?>
<!DOCTYPE svg PUBLIC "-//W3C//DTD SVG 1.1//EN" "http://www.w3.org/Graphics/SVG/1.1/DTD/svg11.dtd">
<svg width="100%" height="100%" viewBox="0 0 423 64" version="1.1" xmlns="http://www.w3.org/2000/svg"
     xml:space="preserve"
     style="fill-rule:evenodd;clip-rule:evenodd;stroke-linejoin:round;stroke-miterlimit:2;">
    <g transform="matrix(1,0,0,1,-4.79,-17.809)">
        <g transform="matrix(0.705934,0,0,0.705934,1.40857,5.23702)">
            <path d="M50.113,29.913C31.774,29.913 16.896,44.786 16.896,63.139C16.896,79.422 28.607,92.959 44.065,95.809L44.065,63.13L56.173,63.13L56.173,95.809C71.625,92.959 83.335,79.422 83.335,63.139C83.334,44.786 68.46,29.913 50.113,29.913M50.113,17.809C75.149,17.809 95.443,38.107 95.443,63.138C95.443,88.174 75.15,108.469 50.113,108.469C25.084,108.469 4.79,88.174 4.79,63.138C4.79,38.107 25.083,17.809 50.113,17.809" style="fill:rgb(204,3,12);fill-rule:nonzero;"/>
        </g>
        <g transform="matrix(0.705934,0,0,0.705934,1.40857,5.23702)">
            <path d="M118.215,64.557C118.215,59.911 117.947,55.35 117.862,50.707L122.596,50.707C122.685,53.332 122.861,55.966 122.949,57.807L123.123,57.807C126.368,51.402 130.135,50.089 135.047,50.089L135.047,55.531C126.981,55.531 123.298,59.03 123.298,67.27L123.298,95.416L118.215,95.416L118.215,64.557ZM163.268,72.884C152.749,72.884 143.893,72.884 143.893,83.06C143.893,86.827 146.696,91.294 152.135,91.294C154.505,91.294 163.267,90.331 163.267,78.148L163.267,72.884L163.268,72.884ZM168.008,85.421C168.008,88.754 168.268,92.088 168.533,95.417L163.971,95.417L163.617,89.017L163.445,89.017C160.375,93.933 156.695,96.031 150.903,96.031C143.978,96.031 138.457,90.332 138.457,83.06C138.457,68.763 153.624,68.505 160.025,68.505L163.267,68.505C163.267,62.893 163.267,54.824 153.974,54.824C148.009,54.824 143.281,59.031 142.753,59.472L141.966,54.036C146.174,51.753 149.329,50.094 154.238,50.094C168.007,50.094 168.007,61.659 168.007,64.906L168.007,85.421L168.008,85.421ZM183.694,73.065C183.694,76.742 183.694,91.294 193.859,91.294C202.535,91.294 204.906,82.709 204.906,73.589C204.906,67.625 204.906,54.824 193.949,54.824C186.325,54.824 183.694,62.711 183.694,73.065M209.64,80.607C209.64,87.618 209.819,91.565 209.994,95.417L205.257,95.417L205.257,89.284L205.077,89.284C201.756,93.489 198.946,96.03 193.339,96.03C178.782,96.03 178.255,77.621 178.255,71.396C178.255,62.892 181.854,50.089 193.076,50.089C198.775,50.089 202.097,52.369 204.383,56.491L204.56,56.491L204.56,29.664L209.642,29.664L209.642,80.607L209.64,80.607ZM221.999,32.908L228.135,32.908L228.135,40.795L221.999,40.795L221.999,32.908ZM222.525,50.708L227.61,50.708L227.61,95.417L222.525,95.417L222.525,50.708ZM255.21,96.03C242.144,96.03 238.466,84.283 238.466,73.065C238.466,61.835 242.144,50.089 255.21,50.089C268.277,50.089 271.952,61.834 271.952,73.065C271.953,84.283 268.278,96.03 255.21,96.03M255.21,91.304C266.523,91.304 266.523,76.652 266.523,73.065C266.523,69.471 266.523,54.824 255.21,54.824C243.897,54.824 243.897,69.471 243.897,73.065C243.897,76.652 243.897,91.304 255.21,91.304M293.258,72.713C293.258,81.21 295.451,88.141 301.849,88.141C308.167,88.141 309.829,82.882 309.829,72.455C309.829,63.416 307.725,57.543 301.672,57.543C295.708,57.543 293.258,63.947 293.258,72.713M293.258,29.664L293.258,56.759L293.429,56.759C295.012,53.251 298.601,49.566 305.097,49.566C314.826,49.566 320.705,58.159 320.705,72.888C320.705,85.421 316.049,96.128 304.835,96.128C297.813,96.128 294.571,92.258 292.824,88.406L292.553,88.406C292.553,91.477 292.385,94.1 292.204,95.417L282.033,95.417C282.295,93.749 282.384,90.947 282.384,87.706L282.384,29.664L293.258,29.664ZM330.512,95.417L341.38,95.417L341.38,70.698C341.38,62.283 346.297,59.561 350.767,59.561C351.909,59.561 352.867,59.736 353.832,59.996L353.832,49.831C353.224,49.74 352.691,49.565 351.995,49.565C345.235,49.565 341.82,55.003 340.504,58.507L340.332,58.507C340.332,55.787 340.066,52.982 339.978,50.265L330.157,50.265C330.425,52.279 330.512,54.912 330.512,57.718L330.512,95.417ZM384.149,68.938C384.149,60.962 381.521,56.931 376.613,56.931C370.918,56.931 368.547,62.976 368.547,68.938L384.149,68.938ZM392.395,93.226C390.118,94.195 385.385,96.127 378.895,96.127C364.336,96.127 358.025,85.688 358.025,73.497C358.025,60.002 365.129,49.564 376.614,49.564C386.345,49.564 394.674,55.264 394.674,73.68L394.674,75.778L368.548,75.778C368.548,83.496 371.613,88.139 380.029,88.139C386.696,88.139 389.852,86.124 391.87,84.635L392.395,93.226ZM404.589,95.417L415.46,95.417L415.46,68.07C415.46,63.067 418,58.507 422.828,58.507C426.86,58.507 428.614,61.313 428.614,66.928L428.614,95.416L439.482,95.416L439.482,68.07C439.482,63.067 442.023,58.507 446.851,58.507C450.88,58.507 452.638,61.313 452.638,66.928L452.638,95.416L463.505,95.416L463.505,67.533C463.505,56.58 460.352,49.565 450.534,49.565C443.872,49.565 440.625,53.596 438.43,56.758C437.114,54.3 434.663,49.565 427.036,49.565C420.807,49.565 417.297,53.859 415.633,57.366L415.458,57.366C415.458,55.003 415.194,52.634 415.117,50.265L404.234,50.265C404.406,51.933 404.589,54.383 404.589,57.632L404.589,95.417ZM498.843,68.938C498.843,60.962 496.211,56.931 491.301,56.931C485.605,56.931 483.244,62.976 483.244,68.938L498.843,68.938ZM507.084,93.226C504.807,94.195 500.076,96.127 493.584,96.127C479.034,96.127 472.717,85.688 472.717,73.497C472.717,60.002 479.81,49.564 491.301,49.564C501.035,49.564 509.367,55.264 509.367,73.68L509.367,75.778L483.244,75.778C483.244,83.496 486.303,88.139 494.72,88.139C501.394,88.139 504.539,86.124 506.555,84.635L507.084,93.226ZM519.549,95.417L530.417,95.417L530.417,69.121C530.417,63.329 532.438,58.508 538.131,58.508C542.611,58.508 544.36,61.396 544.36,68.327L544.36,95.417L555.232,95.417L555.232,66.312C555.232,57.193 552.164,49.565 541.904,49.565C534.535,49.565 531.469,54.473 529.889,57.193L529.983,57.193L529.722,57.193C529.722,54.913 529.459,52.545 529.367,50.265L519.194,50.265C519.458,52.279 519.549,54.912 519.549,57.718L519.549,95.417ZM591.165,49.966L577.516,54.854L577.516,39.594L570.753,42.041L570.753,36.99L591.165,29.663L591.165,49.966ZM583.026,24.448C592.582,24.448 600.327,32.198 600.327,41.753C600.327,51.308 592.582,59.066 583.026,59.066C573.468,59.066 565.715,51.308 565.715,41.753C565.715,32.198 573.469,24.448 583.026,24.448ZM583.026,21.476C571.826,21.476 562.744,30.556 562.744,41.752C562.744,52.954 571.826,62.038 583.026,62.038C594.226,62.038 603.3,52.954 603.3,41.752C603.301,30.556 594.227,21.476 583.026,21.476Z" style="fill-rule:nonzero;"/>
        </g>
    </g>
</svg>
