<?xml version="1.0" encoding="UTF-8" standalone="no"?>
<!DOCTYPE svg PUBLIC "-//W3C//DTD SVG 1.1//EN" "http://www.w3.org/Graphics/SVG/1.1/DTD/svg11.dtd">
<svg width="100%" height="100%" viewBox="0 0 146 64" version="1.1" xmlns="http://www.w3.org/2000/svg"
     xml:space="preserve"
     style="fill-rule:evenodd;clip-rule:evenodd;stroke-linejoin:round;stroke-miterlimit:2;">
    <g id="path136" transform="matrix(0.691978,0,0,0.691978,0,0)">
        <path d="M210.981,0L0,0L0,92.488L190.751,92.488L210.981,0Z" style="fill:rgb(227,24,24);fill-rule:nonzero;"/>
    </g>
    <g id="path138" transform="matrix(0.691978,0,0,0.691978,0,0)">
        <path d="M110.981,62.427C110.981,60.695 111.559,57.803 111.559,54.916C111.559,52.024 110.981,49.136 110.981,47.399C106.357,45.667 94.798,42.775 78.033,45.667L78.033,63.587C83.817,64.164 89.019,64.164 93.061,64.164C103.47,64.164 108.671,63.01 110.981,62.427M168.206,62.427C168.206,60.695 168.784,57.803 168.784,54.916C168.784,52.024 168.206,49.136 168.206,47.399C163.582,45.667 152.023,42.775 135.258,45.667L135.258,63.587C141.042,64.164 146.244,64.164 150.291,64.164C160.117,64.164 165.319,63.01 168.206,62.427M176.3,54.338C176.3,65.319 174.568,68.211 174.568,68.211C174.568,68.211 169.366,72.253 150.291,72.253C139.883,72.253 127.747,70.521 127.747,70.521L127.747,20.235L135.258,20.235L135.258,36.995C139.883,36.418 144.507,35.841 147.976,35.841C165.897,35.841 174.568,41.042 174.568,41.042C174.568,41.042 176.3,43.352 176.3,54.338M119.075,54.338C119.075,65.319 117.343,68.211 117.343,68.211C117.343,68.211 112.141,72.253 93.061,72.253C82.657,72.253 70.521,70.521 70.521,70.521L70.521,20.235L78.033,20.235L78.033,36.995C82.657,36.418 87.282,35.841 90.751,35.841C108.671,35.841 117.343,41.042 117.343,41.042C117.343,41.042 119.075,43.352 119.075,54.338M61.85,44.512C42.197,44.512 31.794,47.977 28.324,49.136L28.324,71.676L20.23,71.676L20.23,43.935C20.23,43.935 31.794,36.995 61.85,36.418L61.85,44.512Z" style="fill:white;fill-rule:nonzero;"/>
    </g>
</svg>
