<?xml version="1.0" encoding="UTF-8" standalone="no"?>
<!DOCTYPE svg PUBLIC "-//W3C//DTD SVG 1.1//EN" "http://www.w3.org/Graphics/SVG/1.1/DTD/svg11.dtd">
<svg width="100%" height="100%" viewBox="0 0 72 64" version="1.1" xmlns="http://www.w3.org/2000/svg"
     xml:space="preserve" xmlns:serif="http://www.serif.com/"
     style="fill-rule:evenodd;clip-rule:evenodd;stroke-linejoin:round;stroke-miterlimit:2;">
    <g transform="matrix(1,0,0,1,-0.0094468,2e-07)">
        <g id="Ebene_1" transform="matrix(0.131843,0,0,0.131843,0.0094468,-2e-07)">
            <g id="polygon400" transform="matrix(1.32017,0,0,1.32017,1.38778e-17,0)">
                <path d="M241.6,0L0,21.1L23,283.5L283.5,237.5L241.6,0Z" style="fill:rgb(0,119,150);fill-rule:nonzero;"/>
            </g>
            <g id="g404" transform="matrix(1.32017,0,0,1.32017,1.38778e-17,0)">
                <path id="path402" d="M168.3,117.2C168.3,117.2 172.3,116.9 175.9,116.9C187.3,116.9 192.3,122.6 192.3,130.9C192.3,140.1 185.8,145.2 175.3,145.2C171.8,145.2 168.3,145 168.3,145L168.3,117.2ZM225.8,204.6L204.7,170.6C201.4,165 196.9,158.8 196.9,158.8C209.3,154.7 218.4,145 218.4,128.8C218.4,105.9 203.1,96.5 177.4,96.5C158.8,96.5 143.5,97.3 143.5,97.3L143.5,204.6L168.3,204.6L168.3,163.4L172.4,163.4L195.8,204.6L225.8,204.6ZM121.1,97.8C113.8,96.4 106.5,95.4 99.3,95.4C74,95.4 58.8,109.2 58.8,128C58.8,163 102.8,157.6 102.8,174.9C102.8,181.7 97.6,185.1 88.8,185.1C80.4,185.1 70.2,182.6 63,179.5L60.4,203C68,204.9 78,206.5 87.7,206.5C113.9,206.5 129,192 129,172.5C129,137.4 84.8,142.9 84.8,125.6C84.8,119.2 89.6,115.9 98.3,115.9C104.8,115.9 112,117.3 118.6,119.6L121.1,97.8Z" style="fill:white;fill-rule:nonzero;"/>
            </g>
        </g>
        <g id="path407" transform="matrix(0.174055,0,0,0.174055,0.0094468,-2e-07)">
            <g id="Ebene_3">
                <path id="path4071" serif:id="path407" d="M411.6,366.9L411.6,326.9L402,326.9L402.1,343.7C402.1,347.8 402.2,351.2 402.3,353.5L402.2,353.5C401,350.8 399.6,348.3 398.1,345.9L386.5,326.8L373.2,326.8L373.2,366.8L382.7,366.8L382.7,347.1C382.7,344 382.6,342 382.5,340L382.6,340C383.6,342.2 385,345.1 386.4,347.3L398.4,366.8L411.6,366.8L411.6,366.9ZM362.5,366.9L362.5,359L347.8,359L347.8,350.2L361.8,350.2L361.8,342.7L347.8,342.7L347.8,334.7L362.5,334.7L362.5,326.9L337.9,326.9L337.9,366.9L362.5,366.9ZM325.9,366.9L325.9,326.9L316,326.9L316,342.2L299,342.2L299,326.9L289.1,326.9L289.1,366.9L299,366.9L299,350.8L316,350.8L316,366.9L325.9,366.9ZM278.4,366.9L278.4,359L263.7,359L263.7,350.2L277.7,350.2L277.7,342.7L263.7,342.7L263.7,334.7L278.4,334.7L278.4,326.9L253.8,326.9L253.8,366.9L278.4,366.9ZM244.3,353.7C244.3,341.4 227.9,343.8 227.9,338.1C227.9,335.6 229.7,334 233.9,334C236.2,334 239.1,334.4 241.3,335L241.6,326.7C239.4,326.4 236.5,326.1 234.3,326.1C223.3,326.1 217.4,331.3 217.4,339.2C217.4,352.3 233.5,348.9 233.5,355C233.5,358 230.7,359.5 227.4,359.5C224.2,359.5 221.3,359 218.9,358L218.5,366.8C220.7,367.3 223.8,367.7 226.3,367.7C237.5,367.7 244.3,362.1 244.3,353.7M207.9,366.9L207.9,326.9L198.3,326.9L198.4,343.7C198.4,347.8 198.5,351.2 198.6,353.5L198.5,353.5C197.3,350.8 195.9,348.3 194.4,345.9L182.8,326.8L169.5,326.8L169.5,366.8L179,366.8L179,347.1C179,344 178.9,342 178.8,340L178.9,340C179.9,342.2 181.3,345.1 182.7,347.3L194.7,366.8L207.9,366.8L207.9,366.9ZM148.8,339.2C148.8,342.5 146.3,344.7 142.5,344.7C141.4,344.7 140.2,344.7 139.2,344.5L139.2,334.3C140.1,334.2 141.1,334.1 142.2,334.1C146.3,334.2 148.8,336.1 148.8,339.2M161.5,366.9L152.7,354C151.6,352.3 150.5,350.7 149.7,349.6C155.5,348.2 159.4,344.4 159.4,338.2C159.4,330.4 153.6,326.7 143.7,326.7C138.6,326.7 132.6,326.8 129.3,326.9L129.3,366.9L139.2,366.9L139.2,351.3L139.6,351.3L149.4,366.9L161.5,366.9ZM118.6,366.9L118.6,359L104,359L104,350.2L118,350.2L118,342.7L104,342.7L104,334.7L118.7,334.7L118.7,326.9L94,326.9L94,366.9L118.6,366.9ZM84.6,334.7L84.6,326.9L60.4,326.9L60.4,366.9L70.3,366.9L70.3,351L83.8,351L83.8,343.4L70.3,343.4L70.3,334.7L84.6,334.7Z" style="fill:rgb(0,60,90);fill-rule:nonzero;"/>
            </g>
        </g>
    </g>
</svg>
