<?xml version="1.0" encoding="UTF-8" standalone="no"?>
<!DOCTYPE svg PUBLIC "-//W3C//DTD SVG 1.1//EN" "http://www.w3.org/Graphics/SVG/1.1/DTD/svg11.dtd">
<svg width="100%" height="100%" viewBox="0 0 218 64" version="1.1" xmlns="http://www.w3.org/2000/svg"
     xml:space="preserve"
     style="fill-rule:evenodd;clip-rule:evenodd;stroke-linejoin:round;stroke-miterlimit:2;">
    <g transform="matrix(1,0,0,1,0.0180032,0)">
        <g transform="matrix(0.266667,0,0,0.266667,-0.0132024,0)">
            <path d="M588.4,240L707.4,120L588.4,0L588.4,78L630.3,120L588.3,162L588.3,240L588.4,240ZM303.6,146.8L325.3,13L375.6,13L337.5,229L281,229L256.7,90.5L232.3,229.2L175.9,229.2L137.8,13L188,13L209.8,146.7L231.6,13L281.8,13L303.6,146.8ZM489.4,135.4L506.1,159.7L551.7,229.1L491.1,229.1L439.6,144.7L437.7,144.7L437.7,229L387.8,229L387.8,13C406.1,11.7 429.4,11.4 455.4,11.4C506.4,11.4 536.2,29.7 536.2,75.5C536.2,104.6 518.2,128.3 489.4,135.3L489.4,135.4ZM450.2,109.2C471.5,109.2 485,98 485,79.8C485,62.8 475,52.6 451.5,52.6C446.4,52.6 440.5,52.9 437.7,53.2L437.7,108.5C440.3,108.8 445.4,109.2 450.2,109.2ZM139.8,159.2C139.8,201.1 106.3,232.2 51.2,232.2C36.2,232.2 20.4,230.6 6.7,227.4L8.9,180.1C21,184.6 39.3,189.2 54.9,189.2C73.3,189.2 86.4,181.5 86.4,166.2C86.4,150.8 71.6,145 54.2,138.2C30,129 1,117.7 0,76C-0.9,35.3 32,8.5 86.1,8.5C97.6,8.5 112.1,9.8 125.5,12.4L125.4,56.4C112.013,52.4 98.165,50.148 84.2,49.7C63.3,49.7 53.4,58.7 53.4,70.8C53.4,84.8 68.2,90.7 85.5,97.7C110.1,107.6 139.8,119.6 139.8,159.2ZM695.3,78L695.3,0L814.3,120L695.3,240L695.3,162L737.2,120L695.2,78L695.3,78Z" style="fill:rgb(29,11,64);fill-rule:nonzero;"/>
        </g>
    </g>
</svg>
