<?xml version="1.0" encoding="UTF-8" standalone="no"?>
<!DOCTYPE svg PUBLIC "-//W3C//DTD SVG 1.1//EN" "http://www.w3.org/Graphics/SVG/1.1/DTD/svg11.dtd">
<svg width="100%" height="100%" viewBox="0 0 221 64" version="1.1" xmlns="http://www.w3.org/2000/svg"
     xml:space="preserve"
     style="fill-rule:evenodd;clip-rule:evenodd;stroke-linejoin:round;stroke-miterlimit:2;">
    <g transform="matrix(1,0,0,1,-8.84535,-8.77358)">
        <g id="path3491" transform="matrix(4.31536,0,0,4.31536,8.84535,8.77358)">
            <path d="M31.189,14.831L34.92,14.831L34.92,10.058L35.205,10.058C35.63,10.058 36.701,10.035 37.284,10.977L39.576,14.831L43.591,14.831L41.503,11.322C40.813,10.146 40.245,9.516 39.799,9.192L39.799,9.153C41.058,8.707 42.435,7.631 42.435,5.438C42.435,2.722 40.489,1.322 37.041,1.322L31.189,1.322L31.189,6.011L31.151,6.011C30.443,3.182 28.056,1.322 23.698,1.322L15.445,1.322L14.188,6.838C13.924,7.974 13.7,9.416 13.7,9.416L13.66,9.416C13.66,9.416 13.376,7.813 13.113,6.676L12.036,1.322L7.506,1.322L6.43,6.676C6.166,7.813 5.883,9.416 5.883,9.416L5.841,9.416C5.841,9.416 5.619,7.974 5.355,6.838L4.098,1.322L0,1.322L3.61,14.831L7.731,14.831L9.78,6.169L9.82,6.169L11.869,14.831L15.925,14.831L18.93,3.614L18.97,3.614L18.97,14.831L23.576,14.831C27.996,14.831 30.435,12.803 31.153,9.904L31.189,9.904L31.189,14.831ZM23.88,11.768L22.745,11.768L22.745,4.385L23.779,4.385C26.254,4.385 27.369,5.48 27.369,7.996C27.369,10.47 26.254,11.768 23.88,11.768M36.96,7.203L34.92,7.203L34.92,4.182L36.838,4.182C38.116,4.182 38.644,4.688 38.644,5.702C38.644,6.636 38.096,7.203 36.96,7.203" style="fill:rgb(0,55,90);fill-rule:nonzero;"/>
        </g>
        <g id="path3495" transform="matrix(4.31536,0,0,4.31536,8.84535,8.77358)">
            <path d="M48.963,4.886L48.963,1.404L45.48,2.661L45.48,3.526L46.633,3.108L46.633,5.724L48.963,4.886ZM47.573,0C49.483,0 51.032,1.558 51.032,3.478C51.032,5.399 49.483,6.955 47.573,6.955C45.663,6.955 44.114,5.399 44.114,3.478C44.114,1.558 45.663,0 47.573,0M47.573,0.51C45.943,0.51 44.622,1.839 44.622,3.478C44.622,5.116 45.943,6.445 47.573,6.445C49.203,6.445 50.525,5.116 50.525,3.478C50.525,1.839 49.203,0.51 47.573,0.51" style="fill:rgb(0,55,90);fill-rule:nonzero;"/>
        </g>
    </g>
</svg>
