<?xml version="1.0" encoding="UTF-8" standalone="no"?>
<!DOCTYPE svg PUBLIC "-//W3C//DTD SVG 1.1//EN" "http://www.w3.org/Graphics/SVG/1.1/DTD/svg11.dtd">
<svg width="100%" height="100%" viewBox="0 0 110 64" version="1.1" xmlns="http://www.w3.org/2000/svg"
     xml:space="preserve"
     style="fill-rule:evenodd;clip-rule:evenodd;stroke-linejoin:round;stroke-miterlimit:2;">
    <g transform="matrix(1,0,0,1,-3,-3)">
        <g transform="matrix(0.218953,0,0,0.218953,-106.258,61.8984)">
            <g id="ZDFsport_x5F_de">
                <g>
                    <path d="M950.2,-164.8L999,-164.8L999,-188L940.3,-188C908.7,-188 895.7,-170.3 895.7,-142.6L895.7,-139.9C890.4,-172.5 871,-188 835.5,-188L776,-188C752,-236 702.5,-269 645.1,-269C564.5,-269 499,-203.5 499,-122.8C499,-42.1 564.5,23.3 645.1,23.3C702.1,23.3 751.4,-9.2 775.5,-56.7L836.2,-56.7C850.7,-56.7 863.8,-57.6 877.1,-68.2C886.7,-75.8 892.7,-86.6 895.5,-100.7L895.5,-56.9L923.3,-56.9L923.3,-108.4L989,-108.4L989,-131.3L923.2,-131.3L923.6,-140.6C923.7,-155.7 928.3,-164.8 950.2,-164.8ZM834.9,-79.9L804.2,-79.9L804.2,-164.8L834.9,-164.8C859,-164.8 867.7,-154.5 867.7,-122.3C867.7,-90.2 859.1,-79.9 834.9,-79.9Z" style="fill:rgb(250,125,25);fill-rule:nonzero;"/>
                    <g>
                        <path d="M709.8,-133.7L728,-133.7C742.4,-133.7 750.9,-136.6 750.9,-148.8C750.9,-161.4 742.4,-164.9 727.6,-164.9L666.1,-164.9L666.1,-188L737.7,-188C774,-188 779.2,-162.6 779.2,-148.4C779.2,-133.3 773,-109.4 737.7,-109.4L720.1,-109.4C698.1,-109.4 693.4,-101.5 693.4,-86.4L693.4,-79.4L775.6,-79.4L775.6,-57L665.3,-57L665.3,-89.5C665.3,-117.3 678.3,-133.7 709.8,-133.7Z" style="fill:white;fill-rule:nonzero;"/>
                    </g>
                </g>
            </g>
        </g>
    </g>
</svg>
