<?xml version="1.0" encoding="UTF-8" standalone="no"?>
<!DOCTYPE svg PUBLIC "-//W3C//DTD SVG 1.1//EN" "http://www.w3.org/Graphics/SVG/1.1/DTD/svg11.dtd">
<svg width="100%" height="100%" viewBox="0 0 219 64" version="1.1" xmlns="http://www.w3.org/2000/svg"
     xml:space="preserve"
     style="fill-rule:evenodd;clip-rule:evenodd;stroke-linejoin:round;stroke-miterlimit:2;">
    <g id="g4366" transform="matrix(0.390244,0,0,0.390244,0,0)">
        <g id="g4360">
            <path id="path2995" d="M2.5,52L83.5,52L83.5,69.5L31,125L62.5,125L62.5,107L83.5,107L83.5,143L0,143L0,126L52.6,70.4L24,70.4L24,87L2.5,87" style="fill:rgb(255,126,9);fill-rule:nonzero;"/>
            <path id="path3015" d="M197,143L246,143L246,124L233,124L233,72L250,72L250,52L233,52L233,48C233,40.674 233.783,40 240,40L251.5,40L251.5,21L228,21C215.494,21 209,28.666 209,40L209,52L196.5,52L196.5,72L209,72L209,124L197,124" style="fill:rgb(255,126,9);fill-rule:nonzero;"/>
            <g id="text3011" transform="matrix(10.4188,0,0,4.54682,1319.32,438.748)">
                <path id="path3042" d="M-109.833,-91.877L-109.833,-69.334L-108.633,-69.334L-108.633,-65.045L-112.232,-65.045L-112.232,-67.562C-113.395,-65.045 -113.768,-65.045 -114.871,-65.045C-116.258,-65.045 -117.703,-64.577 -117.703,-72.865L-117.703,-76.75C-117.703,-84.76 -116.541,-85.059 -114.871,-85.059C-113.388,-85.059 -113.152,-84.659 -112.232,-82.86L-112.232,-87.588L-113.384,-87.588L-113.384,-91.877L-109.833,-91.877ZM-114.573,-80.676C-115.328,-80.648 -115.346,-79.08 -115.348,-77.532L-115.355,-71.7C-115.357,-69.989 -114.935,-69.363 -114.775,-69.358L-113.439,-69.317C-113.031,-69.304 -112.232,-69.969 -112.232,-69.969L-112.232,-79.89C-112.232,-79.89 -112.75,-80.742 -113.493,-80.715L-114.573,-80.676Z" style="fill:rgb(255,126,9);fill-rule:nonzero;"/>
            </g>
        </g>
        <g id="g3057">
            <path id="rect2997" d="M297.714,0L539.286,0C550.761,0 560,9.239 560,20.714L560,143.286C560,154.761 550.761,164 539.286,164L297.714,164C286.239,164 277,154.761 277,143.286L277,120L248,91L277,91L277,20.714C277,9.239 286.239,0 297.714,0Z" style="fill-rule:nonzero;"/>
            <g id="g3048">
                <g id="g3005">
                    <path id="path3000" d="M303.5,76.5L331.5,76.5L331.5,128.5L340.5,128.5L340.5,143.5L303.5,143.5L303.482,128.375L313,128.5L313,91.5L303.5,91.5" style="fill:white;fill-rule:nonzero;"/>
                    <rect id="rect3002" x="312" y="52" width="19" height="16" style="fill:white;fill-rule:nonzero;"/>
                </g>
                <path id="path3009" d="M347.5,76.5L374.5,76.5L374.5,85C385.4,75.745 387.476,76.497 394.78,76.5C409.653,76.507 413.985,79.786 414,94L414,128.5L423,128.5L423,143.5L388.5,143.5L388.5,128.5L395.5,128.5L395.5,97C395.5,92.065 393.998,91.08 386.5,91C382.436,90.957 379.01,91.646 374.5,94L374.5,128.5L381.5,128.5L381.5,143.5L347,143.5L347,128.5L356,128.5L356,91L347.5,91" style="fill:white;fill-rule:nonzero;"/>
                <path id="rect3017" d="M489.446,76.5L519.054,76.5C527.611,76.5 534.5,86.177 534.5,98.196L534.5,121.804C534.5,133.823 527.611,143.5 519.054,143.5L489.446,143.5C480.889,143.5 474,133.823 474,121.804L474,98.196C474,86.177 480.889,76.5 489.446,76.5Z" style="fill:white;fill-rule:nonzero;"/>
                <path id="rect3020" d="M495.82,91L512.68,91C514.519,91 516,95.659 516,101.446L516,118.054C516,123.841 514.519,128.5 512.68,128.5L495.82,128.5C493.981,128.5 492.5,123.841 492.5,118.054L492.5,101.446C492.5,95.659 493.981,91 495.82,91Z" style="fill-rule:nonzero;"/>
                <path id="path3015-8" d="M429.368,143.5L466,143.5L466,128.5L456.5,128.5L456.5,91.218L469,91.218L469,76.491L456.5,76.491L456.5,73.545C456.5,68.151 456.954,67.655 461.532,67.655L470,67.654L470,53.664L452.195,53.664C442.987,53.664 438.205,59.309 438.205,67.655L438.205,76.491L429,76.491L429,91.218L438.205,91.218L438.205,128.5L429.368,128.5" style="fill:white;fill-rule:nonzero;"/>
            </g>
        </g>
    </g>
</svg>
