<?xml version="1.0" encoding="UTF-8" standalone="no"?>
<!DOCTYPE svg PUBLIC "-//W3C//DTD SVG 1.1//EN" "http://www.w3.org/Graphics/SVG/1.1/DTD/svg11.dtd">
<svg width="100%" height="100%" viewBox="0 0 76 64" version="1.1" xmlns="http://www.w3.org/2000/svg"
     xml:space="preserve"
     style="fill-rule:evenodd;clip-rule:evenodd;stroke-linejoin:round;stroke-miterlimit:2;">
    <g transform="matrix(0.170192,0,0,0.170192,0,0)">
        <path d="M0,51.334L0,376.045L204.334,332.641L204.334,375.999L446.168,324.665L446.168,58.667L242.001,102.142L242.001,0L0,51.334Z" style="fill-rule:nonzero;"/>
    </g>
    <g transform="matrix(0.170192,0,0,0.170192,0,0)">
        <path d="M33.667,109.75L79.167,100L79.167,113.5L53.417,153.125L68.917,150L69.167,142.25L81.667,139.5L81.667,160.5L33.542,170.5L33.542,157L59.417,117.5L45.167,120.375L44.667,127.375L33.667,129.625L33.667,109.75ZM120.417,63.625L142.917,58.625L142.917,130.716C142.917,133.881 144.94,133.834 149.084,132.75L149.084,146.167L137.25,148.5C132.678,149.48 128.854,148.706 128.167,142C123.982,152.287 114.27,155.417 107.25,155.417C95.088,155.417 88.833,146.171 88.833,128.75C88.833,98.207 105.878,91.75 116.084,91.75C121.754,91.75 124.334,94.917 125.917,96.667L125.917,75.25L120.334,76.667L120.417,63.625ZM106.917,125.417C106.917,135.016 109.954,140.584 115.584,140.584C120.584,140.584 126,136.194 126,121.751C126,108.886 122.116,104.501 117.667,104.501C114.217,104.5 106.917,108.67 106.917,125.417ZM156.5,96.75L156.5,83.584L162.583,82.251L162.583,71.584C162.583,54.662 174.167,47.667 200.167,47.834L200.167,64.25L188.5,66.584L188.5,61.167C182.841,60.861 178.917,62.892 178.917,68.167L178.917,78.75L193.417,75.75L193.417,88.858L179.833,91.879L179.833,126.283L188.417,124.5L188.417,137.75L156.75,144.333L156.75,131.166L162.75,129.916L162.75,95.334L156.5,96.75ZM33.417,240.124L33.417,201.5L73.917,192.875C84.07,190.699 87.657,195.581 88.667,204.873C103.45,185.975 125.821,178 136.042,178C150.938,178 158.56,187.83 158.56,206.873L158.56,289.498L106.667,300.498L106.667,231.373C106.667,227.248 103.042,225.373 98.667,226.248L94.542,226.998L94.542,303.123L42.542,314.248L42.542,238.248L33.417,240.124ZM237.918,157.25C268.516,157.25 284.793,180 282.043,216.498L217.167,230.248C218.031,238.894 221.838,242.873 226.918,242.873C232.698,242.873 241.608,238.918 247.168,231.373L277.043,225.123L277.043,250.498C260.484,268.239 230.98,279.373 209.792,279.373C178.631,279.373 166.292,257.706 166.292,229.498C166.292,178.231 208.406,157.25 237.918,157.25ZM234.418,206.499C233.801,199.295 231.187,194.001 227.043,194.001C221.535,194.001 217.749,199.753 216.667,210.249L234.418,206.499ZM362.918,130.625C389.547,130.625 408.543,148.277 408.543,179.5C408.543,231.144 366.555,253.248 333.043,253.248C304.29,253.248 289.168,235.086 289.168,204.998C289.168,147.753 337.514,130.625 362.918,130.625ZM339.418,195.25C339.418,211.641 342.468,218.873 347.418,218.873C352.114,218.873 357.668,213.991 357.668,191.625C357.668,176.46 356.067,167.946 350.078,167.946C343.776,167.946 339.418,176.009 339.418,195.25ZM294.793,289.124L294.793,309.249L403.918,286.249L403.918,265.874L294.793,289.124Z" style="fill:white;fill-rule:nonzero;"/>
    </g>
</svg>
