<?xml version="1.0" encoding="UTF-8" standalone="no"?>
<!DOCTYPE svg PUBLIC "-//W3C//DTD SVG 1.1//EN" "http://www.w3.org/Graphics/SVG/1.1/DTD/svg11.dtd">
<svg width="100%" height="100%" viewBox="0 0 576 512" version="1.1" xmlns="http://www.w3.org/2000/svg"
     xml:space="preserve"
     style="fill-rule:evenodd;clip-rule:evenodd;stroke-linejoin:round;stroke-miterlimit:2;">
    <path d="M512,32L64,32C28.65,32 0,60.65 0,96L0,416C0,451.35 28.65,480 64,480L512,480C547.35,480 576,451.35 576,416L576,96C576,60.65 547.3,32 512,32ZM528,416C528,424.822 520.822,432 512,432L64,432C55.178,432 48,424.822 48,416L48,96C48,87.178 55.178,80 64,80L512,80C520.822,80 528,87.178 528,96L528,416Z" style="fill-rule:nonzero;"/>
    <g transform="matrix(1.2545,0,0,1.2545,-66.0136,40.6902)">
        <path d="M138.075,223.802L172.347,223.802L172.347,177.434L221.739,177.434L221.739,223.802L256.011,223.802L256.011,110.906L221.739,110.906L221.739,154.682L172.347,154.682L172.347,110.906L138.075,110.906L138.075,223.802Z" style="fill-rule:nonzero;"/>
        <path d="M427.227,221.354C424.635,221.786 422.187,222.074 419.739,222.074C410.667,222.074 406.059,220.346 401.307,216.602C416.859,207.962 426.507,192.266 426.507,167.354C426.507,124.442 397.995,108.89 358.683,108.89C319.371,108.89 290.859,124.442 290.859,167.354C290.859,210.266 319.371,225.818 358.683,225.818C360.987,225.818 363.291,225.818 365.451,225.674C367.611,225.53 369.771,225.386 371.787,225.098C382.011,237.194 395.403,241.226 411.675,241.226C415.563,241.226 419.739,240.506 423.483,240.074L427.227,221.354ZM393.099,167.354C393.099,189.53 379.995,199.034 358.683,199.034C337.371,199.034 324.267,189.53 324.267,167.354C324.267,145.178 337.371,135.674 358.683,135.674C379.995,135.674 393.099,145.178 393.099,167.354Z" style="fill-rule:nonzero;"/>
    </g>
</svg>
