<svg xmlns:dc="http://purl.org/dc/elements/1.1/" xmlns:cc="http://creativecommons.org/ns#"
     xmlns:rdf="http://www.w3.org/1999/02/22-rdf-syntax-ns#" xmlns="http://www.w3.org/2000/svg"
     xmlns:sodipodi="http://sodipodi.sourceforge.net/DTD/sodipodi-0.dtd"
     xmlns:inkscape="http://www.inkscape.org/namespaces/inkscape" version="1.1" id="Ebene_2" x="0px" y="0px"
     style="enable-background:new -9.45 0 189 75;" xml:space="preserve" inkscape:version="0.91 r13725"
     sodipodi:docname="1live_logo.svg" viewBox="-8.88 0.16 187.41 67.49"><metadata id="metadata25"><rdf:RDF><cc:Work rdf:about=""><dc:format>image/svg+xml</dc:format><dc:type rdf:resource="http://purl.org/dc/dcmitype/StillImage"/><dc:title/></cc:Work></rdf:RDF></metadata><defs id="defs23"/><sodipodi:namedview pagecolor="#ffffff" bordercolor="#666666" borderopacity="1" objecttolerance="10" gridtolerance="10" guidetolerance="10" inkscape:pageopacity="0" inkscape:pageshadow="2" inkscape:window-width="1920" inkscape:window-height="1138" id="namedview21" showgrid="false" inkscape:zoom="10.475656" inkscape:cx="27.183528" inkscape:cy="45.47504" inkscape:window-x="-8" inkscape:window-y="-8" inkscape:window-maximized="1" inkscape:current-layer="Ebene_2"/><g id="g3-6" transform="matrix(0.56240206,0,0,0.56240206,-8.8772433,0.158753)"><g id="g5-0"><polygon style="fill: rgb(29, 29, 27); --darkreader-inline-fill:#d6d3cd;" points="189.984,75.718 189.984,90.471 148.067,90.471 148.067,25.396 166.825,25.396 166.825,75.718 " id="polygon7-4" data-darkreader-inline-fill=""/><polygon style="fill: rgb(29, 29, 27); --darkreader-inline-fill:#d6d3cd;" points="195.848,90.471 195.848,25.396 214.607,25.396 214.607,90.471 " id="polygon9-2" data-darkreader-inline-fill=""/><path inkscape:connector-curvature="0" style="fill: rgb(29, 29, 27); --darkreader-inline-fill:#d6d3cd;" d="m 218.711,25.396 20.129,0 11.238,34.296 c 1.562,4.886 2.832,10.066 2.928,10.456 l 0.198,0 c 0.098,-0.39 1.464,-5.667 2.932,-10.456 l 10.745,-34.296 18.762,0 -24.23,65.075 -17.587,0 -25.115,-65.075 0,0 z" id="path11-8" data-darkreader-inline-fill=""/><polygon style="fill: rgb(29, 29, 27); --darkreader-inline-fill:#d6d3cd;" points="333.234,75.326 308.124,75.326 308.124,64.385 329.914,64.385 329.914,50.312 308.124,50.312 308.124,40.543 332.552,40.543 332.552,25.396 289.754,25.396 289.754,90.471 333.234,90.471 " id="polygon13-2" data-darkreader-inline-fill=""/><path inkscape:connector-curvature="0" style="fill: rgb(29, 29, 27); --darkreader-inline-fill:#d6d3cd;" d="m 62.503,46.72 -3.567,-6.102 c -0.969,-1.596 -2.725,-1.596 -3.385,-1.596 l -0.778,0 0,7.698 -5.456,0 0,-7.944 -0.406,0 -0.101,0.175 c -1.215,5.01 -5.4,7.769 -11.773,7.769 l -7.067,0 0,-18.087 -0.4,0 -0.11,0.171 -4.71,17.916 -6.07,0 -3.243,-13.969 -0.362,0 -0.105,0.179 -3.202,13.79 -6.173,0 L 0,25.396 l 6.01,0 1.952,8.718 c 0.413,1.804 0.764,4.115 0.769,4.139 l 0.03,0.196 0.384,0 0.101,-0.191 c 0.002,-0.026 0.448,-2.6 0.86,-4.405 l 1.671,-8.457 6.8,0 1.668,8.449 c 0.415,1.812 0.861,4.386 0.867,4.412 l 0.032,0.191 0.384,0 0.094,-0.196 c 0.006,-0.023 0.358,-2.336 0.769,-4.137 l 1.952,-8.719 12.886,0 c 6.388,0 10.393,2.555 11.582,7.388 l 0.045,0.174 0.403,0 0.059,-0.231 0,-7.331 9.039,0 c 3.795,0 8.317,1.112 8.317,6.409 0,3.756 -2.521,5.23 -4.025,5.772 l -0.149,0.056 0,0.28 0.094,0.13 c 0.803,0.598 1.692,1.73 2.635,3.366 l 3.104,5.312 -5.83,-10e-4 0,0 z m -27.011,-4.477 2.027,0 c 3.815,0 5.752,-2.125 5.752,-6.316 0,-4.186 -1.826,-6.053 -5.916,-6.053 l -1.864,0 10e-4,12.369 0,0 z m 19.281,-7.362 3.455,0 c 1.867,0 2.891,-0.942 2.891,-2.652 0,-1.805 -1.009,-2.683 -3.082,-2.683 l -3.263,0 -10e-4,5.335 0,0 z" id="path15-8" data-darkreader-inline-fill=""/><polygon style="fill: rgb(255, 0, 153); --darkreader-inline-fill:#ff1aa3;" points="148.401,0 87.685,0 55.081,120 115.794,120 " id="polygon17-0" data-darkreader-inline-fill=""/><polygon style="fill: rgb(255, 255, 255); --darkreader-inline-fill:#e8e6e3;" points="87.188,41.184 96.419,41.184 96.419,89.898 113.598,89.898 113.598,26.028 91.331,26.028 " id="polygon19-8" data-darkreader-inline-fill=""/></g></g></svg>