<?xml version="1.0" encoding="utf-8"?>
<!-- Generator: Adobe Illustrator 27.5.0, SVG Export Plug-In . SVG Version: 6.00 Build 0)  -->
<svg version="1.1" id="Ebene_4" xmlns="http://www.w3.org/2000/svg" x="0px" y="0px"
     viewBox="0 0 481.5 283.5" style="enable-background:new 0 0 481.5 283.5;" xml:space="preserve">
<style type="text/css">
	.st0{fill:#E8050C;}
</style>
<path class="st0" d="M64.4,94c-7.4-1.4-14.7-2.4-21.9-2.4c-25.4,0-40.8,13.9-40.8,32.8c0,35.2,44.3,29.8,44.3,47.2
	c0,6.9-5.3,10.2-14.1,10.2c-8.5,0-18.7-2.6-25.9-5.6l-2.7,23.7c7.7,1.9,17.8,3.5,27.5,3.5c26.4,0,41.6-14.6,41.6-34.2
	c0-35.3-44.5-29.7-44.5-47.2c0-6.4,4.8-9.8,13.6-9.8c6.6,0,13.8,1.4,20.5,3.7L64.4,94z M169.8,201.4l-21.3-34.2
	c-3.4-5.6-7.8-11.8-7.8-11.8c12.5-4.2,21.6-13.9,21.6-30.2c0-23-15.4-32.5-41.3-32.5c-18.7,0-34.1,0.8-34.1,0.8v108h24.9V160h4.2
	l23.5,41.4H169.8z M111.9,113.5c0,0,4-0.3,7.7-0.3c11.5,0,16.5,5.8,16.5,14.1c0,9.3-6.6,14.4-17.1,14.4c-3.5,0-7-0.2-7-0.2V113.5z"
	/>
<polygon class="st0" points="252.6,1 199.2,251.9 305.5,264.9 305.5,129.3 267.6,147.4 252,111.4 313.6,80.1 354,80.1 354,270.9 
	452.5,283 481.2,49.6 "/>
</svg>
