<?xml version="1.0" encoding="UTF-8" standalone="no"?>
<svg
        version="1.1"
        id="svg2"
        xml:space="preserve"
        width="1000"
        height="190.0009"
        viewBox="0 0 1000 190.0009"
        sodipodi:docname="Tagesschau_2003.svg"
        inkscape:version="1.2.2 (732a01da63, 2022-12-09)"
        xmlns:inkscape="http://www.inkscape.org/namespaces/inkscape"
        xmlns:sodipodi="http://sodipodi.sourceforge.net/DTD/sodipodi-0.dtd"
        xmlns="http://www.w3.org/2000/svg"
        xmlns:rdf="http://www.w3.org/1999/02/22-rdf-syntax-ns#"
        xmlns:cc="http://creativecommons.org/ns#"
        xmlns:dc="http://purl.org/dc/elements/1.1/"><metadata
     id="metadata8"><rdf:RDF><cc:Work
         rdf:about=""><dc:format>image/svg+xml</dc:format><dc:type
           rdf:resource="http://purl.org/dc/dcmitype/StillImage" /><dc:title /></cc:Work></rdf:RDF></metadata><defs
     id="defs6" /><sodipodi:namedview
     pagecolor="#ffffff"
     bordercolor="#666666"
     borderopacity="1"
     objecttolerance="10"
     gridtolerance="10"
     guidetolerance="10"
     inkscape:pageopacity="0"
     inkscape:pageshadow="2"
     inkscape:window-width="1920"
     inkscape:window-height="991"
     id="namedview4"
     inkscape:document-rotation="0"
     showgrid="false"
     inkscape:zoom="0.38"
     inkscape:cx="522.36842"
     inkscape:cy="182.89474"
     inkscape:window-x="-9"
     inkscape:window-y="-9"
     inkscape:window-maximized="1"
     inkscape:current-layer="g10"
     inkscape:showpageshadow="2"
     inkscape:pagecheckerboard="0"
     inkscape:deskcolor="#d1d1d1" /><g
     id="g10"
     inkscape:groupmode="layer"
     inkscape:label="ink_ext_XXXXXX"
     transform="matrix(1.3333333,0,0,-1.3333333,0,87.093333)"><g
       id="g12"
       transform="matrix(0.21825547,0,0,0.21825547,0,-77.247745)"
       style="fill:#001a4b;fill-opacity:1"><path
         d="m 147.949,158.02 c -64.2146,0 -83.7342,26.445 -83.7342,93.804 V 431.891 H 0 v 44.07 h 64.2148 v 101.363 l 56.6642,15.739 V 475.961 h 87.512 v -44.07 H 120.879 V 271.973 c 0,-51.621 9.441,-65.481 44.695,-65.481 14.485,0 30.223,2.524 42.817,5.676 v -47.852 c -17.629,-3.781 -40.293,-6.296 -60.442,-6.296"
         style="fill:#001a4b;fill-opacity:1;fill-rule:nonzero;stroke:none"
         id="path14" /><path
         d="m 448.887,307.234 c -108.914,0 -132.836,-33.367 -132.836,-61.707 0,-26.433 18.887,-43.437 47.844,-43.437 51,0 84.992,50.371 84.992,99.476 z m 3.148,-144.175 c 0,22.031 0,44.695 3.153,62.324 h -1.262 c -15.113,-38.399 -54.778,-67.988 -106.403,-67.988 -51.621,0 -86.878,27.695 -86.878,77.429 0,68.637 69.882,112.074 188.242,112.074 v 23.293 c 0,43.442 -16.996,66.739 -68.621,66.739 -29.59,0 -67.368,-9.446 -94.438,-25.817 l -5.668,48.481 c 30.223,12.59 67.992,22.664 109.547,22.664 90.027,0 115.844,-42.184 115.844,-104.508 V 253.086 c 0,-29.59 0.633,-62.957 1.262,-90.027 h -54.778"
         style="fill:#001a4b;fill-opacity:1;fill-rule:nonzero;stroke:none"
         id="path16" /><path
         d="m 730.316,439.449 c -49.734,0 -79.324,-30.851 -79.324,-73.035 0,-46.59 28.328,-71.773 77.438,-71.773 47.218,0 77.437,25.812 77.437,71.773 0,45.957 -27.703,73.035 -75.551,73.035 z M 761.797,159.91 H 681.84 c -24.555,-12.594 -40.293,-33.367 -40.293,-57.293 0,-37.1482 35.254,-57.2967 84.367,-57.2967 64.215,0 101.356,27.082 101.356,65.4807 0,30.222 -21.403,49.109 -65.473,49.109 z M 717.094,0 c -80.586,0 -131.582,32.1094 -131.582,91.9141 0,37.1489 23.926,66.7379 51.629,81.2109 -18.887,8.816 -30.852,25.188 -30.852,45.969 0,22.027 13.223,42.176 35.258,52.254 -30.848,17.629 -45.961,49.738 -45.961,89.398 0,66.109 49.742,120.879 137.25,120.879 18.258,0 32.738,-1.883 49.105,-5.664 H 888.34 v -44.699 h -52.879 c 16.363,-12.59 26.437,-34.625 26.437,-61.071 0,-67.363 -46.585,-116.48 -135.984,-116.48 -13.223,0 -28.965,1.894 -39.668,3.777 -13.848,-5.664 -20.148,-15.73 -20.148,-25.808 0,-17.625 15.742,-24.551 53.515,-24.551 h 57.922 c 67.996,0 105.77,-32.742 105.77,-89.402 C 883.305,51.6211 815.313,0 717.094,0"
         style="fill:#001a4b;fill-opacity:1;fill-rule:nonzero;stroke:none"
         id="path18" /><path
         d="m 1072.82,440.074 c -40.93,0 -69.89,-30.844 -76.183,-76.808 H 1142.7 c 1.26,45.964 -25.82,76.808 -69.88,76.808 z M 1198.73,322.973 H 994.121 c -2.519,-83.735 32.109,-119.621 98.839,-119.621 32.11,0 66.11,7.554 91.29,19.519 l 5.04,-45.969 c -30.22,-12.586 -66.74,-19.507 -105.77,-19.507 -96.329,0 -147.954,50.359 -147.954,160.546 0,93.801 50.997,163.684 139.774,163.684 88.14,0 125.28,-59.809 125.28,-131.582 0,-7.555 -0.63,-16.367 -1.89,-27.07"
         style="fill:#001a4b;fill-opacity:1;fill-rule:nonzero;stroke:none"
         id="path20" /><path
         d="m 1332.21,157.395 c -23.29,0 -46.59,1.882 -66.11,5.664 l 1.89,50.359 c 19.52,-6.289 44.71,-10.691 68.63,-10.691 41.55,0 69.88,18.882 69.88,47.839 0,69.887 -145.43,27.071 -145.43,137.254 0,52.883 43.44,93.805 125.28,93.805 18.89,0 40.93,-2.516 59.82,-6.293 l -1.26,-47.219 c -19.52,6.297 -42.19,10.075 -62.96,10.075 -41.55,0 -62.33,-17.629 -62.33,-44.704 0,-68.621 146.06,-31.476 146.06,-136.621 0,-56.66 -50.36,-99.468 -133.47,-99.468"
         style="fill:#001a4b;fill-opacity:1;fill-rule:nonzero;stroke:none"
         id="path22" /><path
         d="m 1599.74,156.133 c -24.55,0 -49.11,3.144 -69.26,8.808 l 5.04,78.079 c 18.89,-8.196 42.19,-12.598 65.48,-12.598 23.92,0 38.4,9.441 38.4,24.551 0,45.968 -115.21,20.144 -115.21,124.035 0,57.293 42.81,104.508 138.51,104.508 16.99,0 37.14,-2.52 54.77,-5.664 l -3.15,-74.922 c -15.74,5.668 -35.88,8.183 -54.14,8.183 -24.55,0 -35.89,-9.441 -35.89,-23.922 0,-41.55 117.1,-23.925 117.1,-124.027 0,-66.113 -56.66,-107.031 -141.65,-107.031"
         style="fill:#001a4b;fill-opacity:1;fill-rule:nonzero;stroke:none"
         id="path24" /><path
         d="m 1923.97,156.133 c -95.06,0 -143.54,52.883 -143.54,153.617 0,94.441 50.37,173.137 163.69,173.137 21.41,0 44.07,-3.778 63.59,-10.074 l -14.48,-83.102 c -15.74,6.926 -32.74,10.699 -49.74,10.699 -42.81,0 -62.95,-32.105 -62.95,-83.101 0,-47.856 20.14,-77.446 62.95,-77.446 18.26,0 37.14,3.157 52.89,10.703 l 11.33,-80.586 c -23.3,-8.808 -54.77,-13.847 -83.74,-13.847"
         style="fill:#001a4b;fill-opacity:1;fill-rule:nonzero;stroke:none"
         id="path26" /><path
         d="m 2248.85,163.059 v 198.949 c 0,25.183 -6.93,40.293 -28.97,40.293 -33.99,0 -62.32,-42.184 -62.32,-88.141 V 163.059 h -95.69 v 459.593 h 95.69 V 497.367 c 0,-18.258 -1.26,-44.703 -5.04,-64.219 h 0.63 c 18.26,29.59 52.26,49.739 98.84,49.739 69.89,0 92.55,-45.328 92.55,-99.473 V 163.059 h -95.69"
         style="fill:#001a4b;fill-opacity:1;fill-rule:nonzero;stroke:none"
         id="path28" /><path
         d="m 2578.74,297.781 c -66.73,0 -84.36,-15.73 -84.36,-39.031 0,-16.367 11.96,-29.59 30.84,-29.59 31.49,0 53.52,28.965 53.52,59.817 z m 8.82,-134.722 c 0,15.105 0,31.472 2.52,47.214 h -0.64 c -15.1,-32.734 -52.25,-54.14 -95.69,-54.14 -59.81,0 -91.29,40.918 -91.29,92.551 0,78.699 73.66,110.179 176.28,110.179 v 9.442 c 0,29.59 -13.85,42.179 -49.1,42.179 -27.71,0 -66.11,-8.812 -95.07,-20.773 l -14.48,73.027 c 32.73,11.965 79.32,21.407 122.14,21.407 103.25,0 132.84,-40.293 132.84,-110.805 V 237.344 c 0,-22.664 0.62,-49.735 2.52,-74.285 h -90.03"
         style="fill:#001a4b;fill-opacity:1;fill-rule:nonzero;stroke:none"
         id="path30" /><path
         d="m 2943.91,163.059 c 0,11.961 0.62,33.992 3.77,49.109 l -1.26,0.625 c -18.89,-32.734 -53.51,-56.66 -103.25,-56.66 -69.88,0 -93.18,45.332 -93.18,99.472 v 220.356 h 96.33 V 277.012 c 0,-25.188 6.92,-40.293 28.95,-40.293 34.01,0 61.7,42.179 61.7,87.515 v 151.727 h 96.33 V 163.059 h -89.39"
         style="fill:#001a4b;fill-opacity:1;fill-rule:nonzero;stroke:none"
         id="path32" /><path
         d="m 3167.86,483.605 55.76,20.161 V 377.914 l 112.6,40.309 v 167.441 l -168.36,-60.445 z m 101.2,-140.402 c -78.82,0 -142.73,63.914 -142.73,142.727 0,78.84 63.91,142.734 142.73,142.734 78.83,0 142.72,-63.894 142.72,-142.734 0,-78.813 -63.89,-142.727 -142.72,-142.727 z m 0,310.012 c -92.35,0 -167.26,-74.891 -167.26,-167.285 0,-92.36 74.91,-167.27 167.26,-167.27 92.38,0 167.28,74.91 167.28,167.27 0,92.394 -74.9,167.285 -167.28,167.285"
         style="fill:#001a4b;fill-opacity:1;fill-rule:nonzero;stroke:none"
         id="path34" /></g></g></svg>
